<?xml version="1.0" encoding="UTF-8"?>
<svg id="Layer_1" xmlns="http://www.w3.org/2000/svg" version="1.1" viewBox="0 0 2256.4 2266.2">
  <!-- Generator: Adobe Illustrator 29.8.1, SVG Export Plug-In . SVG Version: 2.1.1 Build 2)  -->
  <defs>
    <style>
      .st0 {
        fill: #0e0f10;
      }
    </style>
  </defs>
  <path class="st0" d="M291.5,1840.2c22.4,139.5,47.8,281.5,76.2,426h1888.7c-10.2-39.4-21-78.4-32.5-117.1-2.1-7.1-3.2-16-3-23.3,1.8-47.1,3.3-96.2,4.6-147.4.4-16.9-.8-33.6-3.7-50.1-19.1-109.5-43-236-71.7-379.4-8.6-43.2-27.6-95.3-47.1-139.7-5.2-11.8-16.5-18.8-27.8-23.8-53.7-24.2-110.7-50-170.9-77.7-30.9-14.1-60.7-26.1-89.5-36-55.1-18.9-112.1-37.2-170.9-54.9-19.8-6-34.1-15-42.9-27.1-43.1-59.2-84.6-117.3-124.4-174.2-22.8-32.5-49.9-56.8-81.3-72.8-8.4-4.3-17.5-7-25.8-11.3-1.3-.6-2-1.7-1.9-3.2l.8-69.5c0-2.3,1.8-4.3,4.1-4.5,17.6-2.1,33-22.2,38.3-37.2,15.1-41.9,8.9-83.6,7.2-127.9-.6-14.7,8.2-28.6,13.3-42.6,1.2-3.1,3.7-5.5,6.9-6.3,73.1-20.1,142.9-46.9,209.4-80.4,27.3-13.7,66.4-33.1,80.4-60.5.6-1.2.6-2.5,0-3.7-9.1-18.9-40.6-24.1-59.4-26.9-71.1-10.4-140.4-11.1-214-12.4-2.2,0-4.1-1.7-4.4-3.9-5.1-40-11-81.4-17.7-124.5-1-6.4-2.7-12.5-5-18.7-.6-1.8-1.9-3-3.8-3.5l-19.1-5.6c-3-.9-5.2-3.5-5.6-6.6-4.9-38.7-10.4-78-16.4-118-3.9-25.9-10.1-49.8-18.5-71.8-20.2-52.6-77.8-119.8-141.4-100.3-26.2,8.1-51.9,18.3-79.5,19.8-27.1,1.4-54.7.7-83-2.2-14.2-1.4-29.9-2.6-43.1,3.3-29.5,13-48.7,27.9-83.3,12.5-32.8-14.6-77.4-30.5-108.5-7.9-18.4,13.4-31.9,32.6-40.5,57.7-8.7,25.6-14.5,47.7-17.2,66.2-9.5,64.8-18.3,127.5-26.5,188-.6,4.3-1.4,8.7-2.5,13.1-.3,1.4-1.4,2.5-2.8,2.7l-16.1,3.4c-1.8.4-3.1,2-3.2,3.8l-4.2,101.4c0,1.7-1.3,3.1-3,3.2-49.6,4.8-98.5,11.7-146.8,20.7-42.6,7.9-88,17.5-125,39.6-36.7,21.9,5.3,46,23,54.1,67.6,30.9,142.9,47.8,216.7,60.9,156.4,27.8,310.2,39.9,470.4,40.7.6,0,.9.3.9.9h0c0,.7-.3,1-.9,1-138.2,8.1-277.6,2.1-418.3-18.3-2.2-.3-4.2,1.2-4.5,3.3-4.1,25-6,47.1,1.3,73,7.5,26.7,18.1,52.8,31.6,78.4,13.5,25.6,38.3,29.3,50.7-1.8.9-2.4,2.1-2.5,3.3-.2,16.3,28.3,26.9,50.7,31.9,67.3,4.8,15.8,8.7,38.3,11.9,67.3,1.7,15.6,6.9,32.1,14.4,45.8,17.4,31.7,34.8,63.9,52.4,96.5,15.2,28.2,27.4,63.1,50.6,83.6,19.8,17.4,39.1,34.2,57.8,50.6,3.5,3.1,3,3.9-1.4,2.4-4-1.3-8.6-3.7-13.8-7.2-20.9-14-40.8-27.7-59.7-40.9-16.8-11.8-27.3-22.8-36.4-39.8-23.7-44.3-47.9-88.8-72.8-133.6-1.1-2-2.5-3.7-4.1-5.3-2.9-2.6-4.2-2-3.9,1.9,2.6,40.1,14.2,80.7,23,119.8,10.6,46.8,32.6,77.9,67.5,115.7,30.5,32.9,60.1,66,89.1,99.4,3,3.5,8.3,4.1,12.1,1.5,25.9-18.2,59.4-10.2,85.4,6.8,1.4.9,2.9,1,4.5.2,29.7-15.1,59.1-31,87.3-48.5,2.9-1.8,3.5-1.2,1.8,1.8l-85.3,145c-1.6,2.8-2.2,2.6-1.6-.6,3.1-18.6-3.2-34.6-12.7-50.6-8-13.5-15.3-26.6-21.8-39.4-1.9-3.8-6-6-10.2-5.6-22.1,2.3-45.4,7.9-57.3,27.8-18.8,31.6-41.8,66.8-68.8,105.6-1.6,2.3-1.5,4.5.4,6.6l15.9,18.1c1.6,1.8,4.5,1.8,6-.2l43.4-54.7c1.4-1.8,2.3-1.6,2.4.7,2.9,38.1,3.6,73.1,2,105.1-.2,5.7-1.6,11-4.1,15.8-20.8,41.3-23.1,80.7-24.9,130.6-2.1,57.1-2.9,115.3-2.4,174.8,0,4.1-.6,4.2-1.8.3-24.9-79-53-152.5-80.3-238.1-5.4-16.7-9.6-34.4-12.9-51.5-10.2-54.8-21.6-111.3-34.3-169.5-3-13.7-1.4-14.2,4.9-1.7,8.8,17.7,19,36.4,30.8,56.1,3.6,6,5,5.5,4.2-1.4-1.2-11-3.6-22-7.1-33.1-18.3-58.3-40.4-114.4-66.5-168.3-1.6-3.2-2.6-6.8-2.9-10.7-2.8-34.3-3.5-64.7-2.1-90.9.5-9.9,3.5-19.3,8.9-28.2,5-8.2,6-17.1,6.3-26.5,1.5-50.1-3.6-100.3-15.4-150.8-3.5-14.9-8.2-28.8-14.1-41.7-.8-1.8-3-2.3-4.6-1.2-66.2,49.5-131.9,99.3-183.6,164.6-52.7,66.7-98.2,126.2-136.5,178.4-2.3,3.2-5.7,5.5-9.4,6.6-43.4,12.1-85.7,28-127,47.8-55,26.2-111.2,51-165.5,77.1-13,6.2-31,14.2-40.4,25.3-16.8,19.7-15.3,58.9-9.1,83.3,14.8,57.9,39.1,127.4,60.7,190.7,2.8,8.3,2,8.7-2.6,1.2-31.2-51.1-65.1-101.6-101.5-151.3-5.8-7.9-9.3-7-10.5,2.7-4.8,39.2-10,78.7-15.6,118.4-7.2,51.4-5.1,100.3-4,152.5.8,36,26.1,74.8,42.6,106,5.1,9.6,8.6,19.9,10.5,30.8.5,3-.1,3.2-1.9.9l-12.7-16.7c-2.2-2.9-6.5-3.3-9.1-.8-16.1,15-32.4,29.4-48.9,43.1-17.2,14.2-19.1,35.4-21.2,55.8-5.1,49.1-9.7,97.5-13.9,145.3-2.3,25.6-3.4,51.3-4,77h342.1c-4-16.9-7.9-33.4-11.6-49.5-6.4-27.8-11.1-56.3-14-85.5-9.5-96.9-18.2-193.5-26.1-289.7,0-.5,0-.9.4-1.4.3-.5.6-.5.7.1ZM1239.4,1923.5c11.2-68.1,21.6-136.5,31.2-205.1,2.8-20,14.3-39.5,34.5-58.3,35.1-32.6,69.6-66.4,103.5-101.2,13.6-14,24.5-27.9,32.5-41.8,11.5-20,1.7-52.8-3.6-75.2-1.7-7.3-.7-7.7,2.9-1.2,11.2,19.7,22,39.4,32.3,59.1.8,1.5.6,2.9-.4,4.2-11.6,14.6-23.5,29.8-35.9,45.4-27.6,34.8-58.2,62.6-88.7,93.7-20.6,20.9-31.1,55.3-42.8,88.6-23.4,66.4-44.6,130.5-63.8,192.1-2.7,8.5-3.2,8.4-1.8-.4ZM1139.6,1602.2c24.9-35.3,49.5-72.7,73.7-112.1,2.6-4.1,3.1-3.8,1.7,1l-64.7,214.8c-.9,3.1-1.6,3.1-2-.2l-11.3-93.3c-.4-3.6.5-7.3,2.6-10.3ZM632.8,2253.8c-2.9-6.8-4.2-14.7-6.7-22-32.4-93.6-62.2-183.6-89.4-270-3-9.3-4.5-21-4.5-34.9-.3-71.1,0-138.6.7-202.5,0-.3.2-.5.4-.6.1,0,.3,0,.5,0,.1,0,.2.1.2.3,1.2,44,1.1,91.8,10.2,135.1,25.6,122.3,54.2,245.8,85.6,370.5,1.8,7.3,2.6,15.9,4.5,23.6,1.6,6.4,1.1,6.6-1.5.5ZM422.7,1545.9c2.9-3,5.7-5.5,8.5-7.4,25.3-17.4,53.3-36.6,84-57.8,18.8-13,42-22.8,63.7-31.2.5-.2.9,0,1.1.4h0c.3.7.2,1.1-.5,1.5-13.4,6.9-26.1,16.2-38.2,27.8-1.7,1.7-1.3,4.5.8,5.6,31.8,16.9,48.7,36.8,70.8,69.3,77.9,114.9,155.5,228.2,231.5,343.1.3.4,0,1-.4,1.2-.5.2-.9.1-1.3-.3-59.6-77.3-123.6-161.3-192.1-252-28.4-37.7-53.9-74.3-76.5-109.9-15-23.7-36.3-31.1-63.8-22.1-29.5,9.7-58.2,21-86,33.9-4.3,2-4.9,1.3-1.6-2.2ZM175.4,1433.4c-2.2,1-2.6.6-1.2-1.4,1.9-2.7,4.2-4.7,6.8-6.2,36.3-20.9,78.7-40,127.3-57.1.2,0,.4,0,.5.2h0c.1.4,0,.7-.4,1-44,22.2-88.3,43.3-133.1,63.5Z"/>
</svg>