<?xml version="1.0" encoding="UTF-8"?>
<svg id="Layer_1" xmlns="http://www.w3.org/2000/svg" xmlns:xlink="http://www.w3.org/1999/xlink" version="1.1" viewBox="0 0 600 600">
  <!-- Generator: Adobe Illustrator 29.8.1, SVG Export Plug-In . SVG Version: 2.1.1 Build 2)  -->
  <defs>
    <style>
      .st0 {
        fill: none;
      }

      .st2 {
        fill: #101112;
      }

      .st3 {
        clip-path: url(#clippath);
      }
    </style>
    <clipPath id="clippath">
      <circle class="st0" cx="300" cy="300" r="300"/>
    </clipPath>
  </defs>
  <g class="st3">
    <path class="st2" d="M307.1,200.2c.1,0,.2,0,.2-.2h0c0-.1,0-.2-.2-.2-31.4-.2-61.5-2.5-92.2-8-14.5-2.6-29.2-5.9-42.5-11.9-3.5-1.6-11.7-6.3-4.5-10.6,7.2-4.3,16.2-6.2,24.5-7.8,9.5-1.8,19.1-3.1,28.8-4.1.3,0,.6-.3.6-.6l.8-19.9c0-.4.3-.7.6-.8l3.2-.7c.3,0,.5-.3.5-.5.2-.9.4-1.7.5-2.6,1.6-11.9,3.3-24.1,5.2-36.9.5-3.6,1.7-8,3.4-13,1.7-4.9,4.3-8.7,7.9-11.3,6.1-4.4,14.8-1.3,21.3,1.5,6.8,3,10.5.1,16.3-2.5,2.6-1.1,5.7-.9,8.4-.6,5.5.6,11,.7,16.3.4,5.4-.3,10.4-2.3,15.6-3.9,12.5-3.8,23.8,9.3,27.7,19.7,1.6,4.3,2.9,9,3.6,14.1,1.2,7.8,2.3,15.5,3.2,23.1,0,.6.5,1.1,1.1,1.3l3.7,1.1c.4.1.6.3.7.7.5,1.2.8,2.4,1,3.7,1.3,8.4,2.5,16.6,3.5,24.4,0,.4.4.8.9.8,14.4.3,28,.4,42,2.4,3.7.5,9.9,1.6,11.6,5.3.1.2.1.5,0,.7-2.7,5.4-10.4,9.2-15.8,11.9-13,6.6-26.7,11.8-41,15.8-.6.2-1.1.6-1.4,1.2-1,2.7-2.7,5.5-2.6,8.3.3,8.7,1.5,16.9-1.4,25.1-1.1,2.9-4.1,6.9-7.5,7.3-.5,0-.8.4-.8.9l-.2,13.6c0,.3.1.5.4.6,1.6.8,3.4,1.4,5.1,2.2,6.1,3.1,11.5,7.9,15.9,14.3,7.8,11.2,15.9,22.5,24.4,34.1,1.7,2.4,4.5,4.1,8.4,5.3,11.5,3.5,22.7,7.1,33.5,10.8,5.6,1.9,11.5,4.3,17.5,7.1,11.8,5.4,23,10.5,33.5,15.2,2.2,1,4.4,2.4,5.4,4.7,3.8,8.7,7.6,18.9,9.2,27.4,5.6,28.1,10.3,52.9,14,74.4.6,3.2.8,6.5.7,9.8-.3,10-.5,19.7-.9,28.9,0,1.4.2,3.2.6,4.6,5.4,18.2,10.1,36.7,14,55.7.9,4.3,1.6,8.4,2.1,12.5,0,.3,0,.6-.3.9l-25.4,26.6c-.2.2-.2.5,0,.7l16.2,16.4c.2.2.2.6,0,.8-1.1.7-2,1.6-2.7,2.6-.4.6-1.1.9-1.8.8l-37.1-4.1c-1.1-.1-1.2,0-.2.6,9.6,5.2,19.3,10.9,29,17.2.1,0,.1.2,0,.3-.1.2-.4.3-.7.3-9.8-1-19.5-2.1-28.9-3.3-.2,0-.4.2-.3.4l7.2,15.7c.1.3,0,.7-.2.9l-22.3,15.4c-.2.1-.3.3-.3.6v19.4c0,.4-.2.8-.4,1.1l-15.5,18.5c-.3.4-.5.3-.6-.2-1.4-8.7-2.4-17.6-3-26.8,0-1.3-.3-1.3-.8,0-1.3,4.1-2.7,8.2-4,12.5-.8,2.7-1.9,5.3-3.3,7.6-.5.9-1.7,1.3-2.7.8-6.2-3.3-12.3-6.1-18.5-8.4-1.7-.6-3.2.2-4.4,1.4-2.4,2.5-4.6,4.9-6.6,7.3-11.7,14-23.5,28.1-35.4,42.2-2,2.4-4.5,4.6-6.8,6.7-.4.4-1.1,0-1.1-.5,0-25.8.2-53.5.3-83.2,0-.5-.1-.6-.5-.1-13.8,18.4-27,36.6-39.5,54.5-.5.8-.8.7-.8-.3l-.2-26c0-.1-.1-.2-.2-.1l-46.1,39.1c-.3.2-.7,0-.7-.3l4.7-78.1c0-.9-.2-1-.7-.3l-53.1,66.8c-.7.8-1,.7-1-.3l1.3-93c0-.7-.3-.8-.8-.3l-65.3,62.7c-.9.9-1.4.7-1.2-.6l1.6-17.1c0-.4-.1-.5-.5-.3-13.6,10-27.7,19.8-42.2,29.3-.4.3-.6.2-.7-.3-.1-1.2,0-2.4.5-3.5,2.3-5.8,5.3-11.3,8.9-16.5,1.2-1.8,1-2-.7-.7-4.4,3.3-9.4,6.5-15.1,9.6-.3.2-.6,0-.8-.1-.1-.2-.2-.3-.1-.5.7-3.2,1.9-6.4,3.5-9.4.7-1.3.4-1.6-.9-.9-5.4,2.6-11.3,4.9-17.9,7.1-.8.2-1.6,0-2.2-.4l-10.3-8.9c-.3-.3-.2-.8.2-.8,16.5-3.3,32.5-6.8,48.1-10.3,1.4-.3,1.4-.5,0-.5-17.7-.2-37.1-.3-58.2-.3-.3,0-.6,0-.8-.3-.2-.2-.2-.6,0-.8,6-6.3,12-12.4,18.1-18.2,5.4-5.2,10.7-11.9,15.9-16,7.1-5.6,13.9-10.9,20.1-16,1.4-1.1,1.3-1.3-.3-.4-16.3,8.8-33,18-50.1,27.6-.1,0-.3,0-.4-.1-3.1-5.4-6.9-10.9-7.9-17.1-.9-5.4-1.3-11.7-1.4-18.7,0-3.1,1.2-5.5,3.8-7.1,6.2-3.8,12.2-7.6,17.8-11.5.4-.3.6-.8.5-1.3-2.2-7.5-4.2-14.9-5.8-22.3-.2-1-.3-1.9-.3-2.9.2-14.9-.3-30,1-44.9.8-9.4,1.7-18.9,2.7-28.5.4-4,.8-8.2,4.2-11,3.2-2.7,6.4-5.5,9.6-8.4.5-.5,1.4-.4,1.8.2l2.5,3.3c.4.5.5.4.4-.2-.4-2.1-1.1-4.2-2.1-6-3.2-6.1-8.2-13.7-8.3-20.8-.2-10.2-.6-19.8.8-29.9,1.1-7.8,2.1-15.5,3.1-23.2.2-1.9.9-2.1,2.1-.5,7.1,9.8,13.8,19.6,19.9,29.7.9,1.5,1.1,1.4.5-.2-4.2-12.4-9-26-11.9-37.4-1.2-4.8-1.5-12.5,1.8-16.3,1.9-2.2,5.4-3.7,7.9-5,10.7-5.1,21.7-10,32.4-15.1,8.1-3.9,16.4-7,24.9-9.4.7-.2,1.4-.7,1.9-1.3,7.5-10.2,16.4-21.9,26.8-35,10.1-12.8,23-22.6,36-32.3.3-.2.7-.1.9.2,1.2,2.5,2.1,5.2,2.8,8.2,2.3,9.9,3.3,19.7,3,29.6,0,1.8-.3,3.6-1.2,5.2-1.1,1.7-1.6,3.6-1.7,5.5-.3,5.1-.1,11.1.4,17.8,0,.8.2,1.5.6,2.1,5.1,10.6,9.5,21.6,13,33,.7,2.2,1.1,4.3,1.4,6.5.2,1.4-.1,1.5-.8.3-2.3-3.9-4.3-7.5-6-11-1.2-2.5-1.5-2.4-1,.3,2.5,11.4,4.7,22.5,6.7,33.2.6,3.3,1.5,6.8,2.5,10.1,5.4,16.8,10.9,31.2,15.7,46.7.2.8.4.7.4,0,0-11.6,0-23.1.5-34.3.4-9.8.8-17.5,4.9-25.6.5-1,.8-2,.8-3.1.3-6.3.2-13.1-.4-20.6,0-.5-.2-.5-.5-.1l-8.5,10.7c-.3.4-.9.4-1.2,0l-3.1-3.5c-.4-.4-.4-.8,0-1.3,5.3-7.6,9.8-14.5,13.5-20.7,2.3-3.9,6.9-5,11.2-5.5.8,0,1.6.3,2,1.1,1.3,2.5,2.7,5.1,4.3,7.7,1.9,3.1,3.1,6.3,2.5,9.9-.1.6,0,.7.3.1l16.7-28.4c.3-.6.2-.7-.3-.3-5.5,3.4-11.3,6.6-17.1,9.5-.3.2-.6.1-.9,0-5.1-3.3-11.7-4.9-16.7-1.3-.7.5-1.8.4-2.4-.3-5.7-6.5-11.5-13-17.5-19.5-6.9-7.4-11.2-13.5-13.2-22.7-1.7-7.7-4-15.6-4.5-23.5,0-.8.2-.9.8-.4.3.3.6.6.8,1,4.9,8.8,9.6,17.5,14.3,26.2,1.8,3.3,3.8,5.5,7.1,7.8,3.7,2.6,7.6,5.3,11.7,8,1,.7,1.9,1.2,2.7,1.4.9.3,1,.1.3-.5-3.7-3.2-7.4-6.5-11.3-9.9-4.6-4-6.9-10.9-9.9-16.4-3.4-6.4-6.9-12.7-10.3-18.9-1.5-2.7-2.5-5.9-2.8-9-.6-5.7-1.4-10.1-2.3-13.2-1-3.3-3.1-7.7-6.3-13.2-.3-.4-.5-.4-.7,0-2.4,6.1-7.3,5.4-9.9.3-2.7-5-4.7-10.1-6.2-15.4-1.4-5.1-1.1-9.4-.3-14.3,0-.4.5-.7.9-.6,27.6,4,54.9,5.2,82,3.6M142.5,334c-9.5,3.4-17.8,7.1-24.9,11.2-.5.3-1,.7-1.3,1.2-.3.4-.2.5.2.3,8.8-4,17.5-8.1,26.1-12.4,0,0,0-.1,0-.2h0s0,0,0,0M364.6,363.1c-1.6,2.7-3.7,5.5-6.4,8.2-6.6,6.8-13.4,13.4-20.3,19.8-4,3.7-6.2,7.5-6.8,11.4-1.9,13.5-3.9,26.9-6.1,40.2-.3,1.7-.2,1.7.4,0,3.8-12.1,7.9-24.7,12.5-37.7,2.3-6.5,4.3-13.3,8.4-17.4,6-6.1,12-11.5,17.4-18.4,2.4-3.1,4.8-6,7-8.9.2-.3.2-.5,0-.8-2-3.9-4.1-7.7-6.3-11.6-.7-1.3-.9-1.2-.6.2,1,4.4,3,10.8.7,14.7M188.2,355.7c2.4-2.3,4.9-4.1,7.5-5.5.1,0,.2-.2,0-.3h0c0-.1-.1-.1-.2,0-4.2,1.7-8.8,3.6-12.5,6.1-6,4.2-11.5,7.9-16.5,11.3-.5.4-1.1.9-1.7,1.4-.6.7-.5.8.3.4,5.5-2.5,11.1-4.7,16.9-6.6,5.4-1.8,9.6-.3,12.5,4.3,4.4,7,9.4,14.2,15,21.5,13.4,17.8,26,34.2,37.7,49.4,0,0,.1.1.3,0,0,0,.1-.1,0-.2-14.9-22.5-30.1-44.7-45.4-67.3-4.3-6.4-7.6-10.3-13.9-13.6-.4-.2-.5-.8-.2-1.1M307.6,400.1l12.7-42.1c.3-.9.2-1-.3-.2-4.7,7.7-9.6,15.1-14.4,22-.4.6-.6,1.3-.5,2l2.2,18.3c0,.6.2.6.4,0M204.8,503.2c.5,1.4.7,3,1.3,4.3.5,1.2.6,1.2.3-.1-.4-1.5-.5-3.2-.9-4.6-6.2-24.4-11.8-48.7-16.8-72.6-1.8-8.5-1.8-17.9-2-26.5,0,0,0,0,0,0,0,0,0,0,0,0,0,0,0,0,0,.1-.2,12.5-.2,25.8-.1,39.7,0,2.7.3,5,.9,6.9,5.3,16.9,11.2,34.6,17.5,52.9M168.2,587c.4,1.7.8,3.4,1,5,0,0,0,.1.2.1h0c0,0,.1,0,.1-.2-.5-4.2-1.1-8.1-1.8-11.9-4.2-22-8.4-44-12.8-66-5.9-29.8-11.1-59-15.8-87.7,0-.1,0-.1-.1,0,0,0,0,.2,0,.3,1.6,18.9,3.3,37.8,5.1,56.8.6,5.7,1.5,11.3,2.7,16.8,5.7,24.4,12.8,53.3,21.3,86.8h0Z"/>
  </g>
</svg>
