<?xml version="1.0" encoding="UTF-8"?>
<svg id="Layer_1" xmlns="http://www.w3.org/2000/svg" xmlns:xlink="http://www.w3.org/1999/xlink" version="1.1" viewBox="0 0 580.9 589.5">
  <!-- Generator: Adobe Illustrator 29.8.1, SVG Export Plug-In . SVG Version: 2.1.1 Build 2)  -->
  <defs>
    <style>
      .st0 {
        fill: none;
      }

      .st1 {
        fill: url(#radial-gradient36);
      }

      .st2 {
        fill: url(#radial-gradient37);
      }

      .st3 {
        fill: url(#radial-gradient34);
      }

      .st4 {
        fill: url(#radial-gradient33);
      }

      .st5 {
        fill: url(#radial-gradient38);
      }

      .st6 {
        fill: url(#radial-gradient32);
      }

      .st7 {
        fill: url(#radial-gradient30);
      }

      .st8 {
        fill: url(#radial-gradient31);
      }

      .st9 {
        fill: url(#radial-gradient35);
      }

      .st10 {
        fill: url(#radial-gradient39);
      }

      .st11 {
        fill: url(#radial-gradient55);
      }

      .st12 {
        fill: url(#radial-gradient53);
      }

      .st13 {
        fill: url(#radial-gradient59);
      }

      .st14 {
        fill: url(#radial-gradient58);
      }

      .st15 {
        fill: url(#radial-gradient51);
      }

      .st16 {
        fill: url(#radial-gradient54);
      }

      .st17 {
        fill: url(#radial-gradient52);
      }

      .st18 {
        fill: url(#radial-gradient50);
      }

      .st19 {
        fill: url(#radial-gradient23);
      }

      .st20 {
        fill: url(#radial-gradient22);
      }

      .st21 {
        fill: url(#radial-gradient20);
      }

      .st22 {
        fill: url(#radial-gradient26);
      }

      .st23 {
        fill: url(#radial-gradient25);
      }

      .st24 {
        fill: url(#radial-gradient24);
      }

      .st25 {
        fill: url(#radial-gradient27);
      }

      .st26 {
        fill: url(#radial-gradient21);
      }

      .st27 {
        fill: url(#radial-gradient57);
      }

      .st28 {
        fill: url(#radial-gradient56);
      }

      .st29 {
        fill: url(#radial-gradient70);
      }

      .st30 {
        fill: url(#radial-gradient28);
      }

      .st31 {
        fill: url(#radial-gradient71);
      }

      .st32 {
        fill: url(#radial-gradient29);
      }

      .st33 {
        fill: url(#radial-gradient61);
      }

      .st34 {
        fill: url(#radial-gradient64);
      }

      .st35 {
        fill: url(#radial-gradient62);
      }

      .st36 {
        fill: url(#radial-gradient63);
      }

      .st37 {
        fill: url(#radial-gradient68);
      }

      .st38 {
        fill: url(#radial-gradient66);
      }

      .st39 {
        fill: url(#radial-gradient60);
      }

      .st40 {
        fill: url(#radial-gradient67);
      }

      .st41 {
        fill: url(#radial-gradient65);
      }

      .st42 {
        fill: url(#radial-gradient69);
      }

      .st43 {
        fill: url(#radial-gradient16);
      }

      .st44 {
        fill: url(#radial-gradient17);
      }

      .st45 {
        fill: url(#radial-gradient12);
      }

      .st46 {
        fill: url(#radial-gradient15);
      }

      .st47 {
        fill: url(#radial-gradient18);
      }

      .st48 {
        fill: url(#radial-gradient10);
      }

      .st49 {
        fill: url(#radial-gradient19);
      }

      .st50 {
        fill: url(#radial-gradient13);
      }

      .st51 {
        fill: url(#radial-gradient11);
      }

      .st52 {
        fill: url(#radial-gradient14);
      }

      .st53 {
        fill: url(#radial-gradient42);
      }

      .st54 {
        fill: url(#radial-gradient41);
      }

      .st55 {
        fill: url(#radial-gradient40);
      }

      .st56 {
        fill: url(#radial-gradient45);
      }

      .st57 {
        fill: url(#radial-gradient44);
      }

      .st58 {
        fill: url(#radial-gradient43);
      }

      .st59 {
        fill: url(#radial-gradient49);
      }

      .st60 {
        fill: url(#radial-gradient48);
      }

      .st61 {
        fill: url(#radial-gradient47);
      }

      .st62 {
        fill: url(#radial-gradient46);
      }

      .st63 {
        fill: url(#radial-gradient);
      }

      .st64 {
        fill: #013d7b;
      }

      .st65 {
        fill: #fff;
      }

      .st66 {
        fill: url(#radial-gradient1);
      }

      .st67 {
        fill: url(#radial-gradient6);
      }

      .st68 {
        fill: url(#radial-gradient9);
      }

      .st69 {
        fill: url(#radial-gradient8);
      }

      .st70 {
        fill: url(#radial-gradient3);
      }

      .st71 {
        fill: url(#radial-gradient2);
      }

      .st72 {
        fill: url(#radial-gradient5);
      }

      .st73 {
        fill: url(#radial-gradient4);
      }

      .st74 {
        fill: url(#radial-gradient7);
      }
    </style>
    <radialGradient id="radial-gradient" cx="290.4" cy="330.4" fx="290.4" fy="330.4" r="292.6" gradientTransform="translate(0 -34.2)" gradientUnits="userSpaceOnUse">
      <stop offset=".6" stop-color="#00296e"/>
      <stop offset="1" stop-color="#003e7c"/>
    </radialGradient>
    <radialGradient id="radial-gradient1" cx="290.7" cy="293.7" fx="290.7" fy="293.7" r="269.4" gradientTransform="translate(1.3 3.9)" xlink:href="#radial-gradient"/>
    <radialGradient id="radial-gradient2" cx="290.4" cy="15884.8" fx="290.4" fy="15884.8" r="225.1" gradientTransform="translate(0 -15590)" xlink:href="#radial-gradient"/>
    <radialGradient id="radial-gradient3" cx="290.4" cy="15884.8" fx="290.4" fy="15884.8" r="200.5" gradientTransform="translate(0 -15590)" xlink:href="#radial-gradient"/>
    <radialGradient id="radial-gradient4" cx="514.4" cy="16128.6" fx="514.4" fy="16128.6" r="32.3" gradientTransform="translate(-2 -15654.4)" gradientUnits="userSpaceOnUse">
      <stop offset=".2" stop-color="#00296e"/>
      <stop offset=".8" stop-color="#003e7c"/>
    </radialGradient>
    <radialGradient id="radial-gradient5" cx="525.4" cy="16146.2" fx="525.4" fy="16146.2" r="15.8" xlink:href="#radial-gradient4"/>
    <radialGradient id="radial-gradient6" cx="524.4" cy="16080.6" fx="524.4" fy="16080.6" r="14.7" xlink:href="#radial-gradient4"/>
    <radialGradient id="radial-gradient7" cx="539.9" cy="16050.2" fx="539.9" fy="16050.2" r="14.6" xlink:href="#radial-gradient4"/>
    <radialGradient id="radial-gradient8" cx="540" cy="16148.8" fx="540" fy="16148.8" r="12.6" xlink:href="#radial-gradient4"/>
    <radialGradient id="radial-gradient9" cx="539.9" cy="16110.3" fx="539.9" fy="16110.3" r="14.6" xlink:href="#radial-gradient4"/>
    <radialGradient id="radial-gradient10" cx="539.9" cy="16173" fx="539.9" fy="16173" r="5.4" xlink:href="#radial-gradient4"/>
    <radialGradient id="radial-gradient11" cx="-15279.1" cy="1162.6" fx="-15279.1" fy="1162.6" r="32.3" gradientTransform="translate(-695.7 -14759.5) rotate(-90)" xlink:href="#radial-gradient4"/>
    <radialGradient id="radial-gradient12" cx="-15290.1" cy="1180.2" fx="-15290.1" fy="1180.2" r="15.8" gradientTransform="translate(-695.7 -14759.5) rotate(-90)" xlink:href="#radial-gradient4"/>
    <radialGradient id="radial-gradient13" cx="-15289" cy="1114.6" fx="-15289" fy="1114.6" r="14.7" gradientTransform="translate(-695.7 -14759.5) rotate(-90)" xlink:href="#radial-gradient4"/>
    <radialGradient id="radial-gradient14" cx="-15304.6" cy="1084.2" fx="-15304.6" fy="1084.2" r="14.7" gradientTransform="translate(-695.7 -14759.5) rotate(-90)" xlink:href="#radial-gradient4"/>
    <radialGradient id="radial-gradient15" cx="-15304.6" cy="1182.8" fx="-15304.6" fy="1182.8" r="12.6" gradientTransform="translate(-695.7 -14759.5) rotate(-90)" xlink:href="#radial-gradient4"/>
    <radialGradient id="radial-gradient16" cx="-15304.6" cy="1144.3" fx="-15304.6" fy="1144.3" r="14.6" gradientTransform="translate(-695.7 -14759.5) rotate(-90)" xlink:href="#radial-gradient4"/>
    <radialGradient id="radial-gradient17" cx="-15304.6" cy="1207" fx="-15304.6" fy="1207" r="5.4" gradientTransform="translate(-695.7 -14759.5) rotate(-90)" xlink:href="#radial-gradient4"/>
    <radialGradient id="radial-gradient18" cx="-10483" cy="11908.6" fx="-10483" fy="11908.6" r="14.5" gradientTransform="translate(-533.2 -15351) rotate(-45)" xlink:href="#radial-gradient4"/>
    <radialGradient id="radial-gradient19" cx="-10477.8" cy="11912.6" fx="-10477.8" fy="11912.6" r="10.7" gradientTransform="translate(-498.1 -15308.6) rotate(-45)" xlink:href="#radial-gradient4"/>
    <radialGradient id="radial-gradient20" cx="539.9" cy="16199.6" fx="539.9" fy="16199.6" r="13.9" xlink:href="#radial-gradient4"/>
    <radialGradient id="radial-gradient21" cx="70.5" fx="70.5" r="32.3" xlink:href="#radial-gradient4"/>
    <radialGradient id="radial-gradient22" cx="59.5" cy="16146.2" fx="59.5" fy="16146.2" r="15.8" xlink:href="#radial-gradient4"/>
    <radialGradient id="radial-gradient23" cx="60.6" cy="16080.6" fx="60.6" fy="16080.6" r="14.7" xlink:href="#radial-gradient4"/>
    <radialGradient id="radial-gradient24" cx="45" cy="16050.2" fx="45" fy="16050.2" r="14.6" xlink:href="#radial-gradient4"/>
    <radialGradient id="radial-gradient25" cx="45" cy="16148.8" fx="45" fy="16148.8" r="12.6" xlink:href="#radial-gradient4"/>
    <radialGradient id="radial-gradient26" cx="45" cy="16110.3" fx="45" fy="16110.3" r="14.6" xlink:href="#radial-gradient4"/>
    <radialGradient id="radial-gradient27" cx="45" cy="16173" fx="45" fy="16173" r="5.4" xlink:href="#radial-gradient4"/>
    <radialGradient id="radial-gradient28" cx="15338.1" cy="803.9" fx="15338.1" fy="803.9" r="32.3" gradientTransform="translate(917.8 -14818.4) rotate(90)" xlink:href="#radial-gradient4"/>
    <radialGradient id="radial-gradient29" cx="15349.1" cy="821.5" fx="15349.1" fy="821.5" r="15.8" gradientTransform="translate(917.8 -14818.4) rotate(90)" xlink:href="#radial-gradient4"/>
    <radialGradient id="radial-gradient30" cx="15348" cy="755.9" fx="15348" fy="755.9" r="14.7" gradientTransform="translate(917.8 -14818.4) rotate(90)" xlink:href="#radial-gradient4"/>
    <radialGradient id="radial-gradient31" cx="15363.6" cy="725.5" fx="15363.6" fy="725.5" r="14.7" gradientTransform="translate(917.8 -14818.4) rotate(90)" xlink:href="#radial-gradient4"/>
    <radialGradient id="radial-gradient32" cx="15363.6" cy="824.1" fx="15363.6" fy="824.1" r="12.6" gradientTransform="translate(917.8 -14818.4) rotate(90)" xlink:href="#radial-gradient4"/>
    <radialGradient id="radial-gradient33" cx="15363.6" cy="785.6" fx="15363.6" fy="785.6" r="14.5" gradientTransform="translate(917.8 -14818.4) rotate(90)" xlink:href="#radial-gradient4"/>
    <radialGradient id="radial-gradient34" cx="15363.6" cy="848.2" fx="15363.6" fy="848.2" r="5.4" gradientTransform="translate(917.8 -14818.4) rotate(90)" xlink:href="#radial-gradient4"/>
    <radialGradient id="radial-gradient35" cx="10714.5" cy="11699.3" fx="10714.5" fy="11699.3" r="14.5" gradientTransform="translate(802.5 -15366.7) rotate(45)" xlink:href="#radial-gradient4"/>
    <radialGradient id="radial-gradient36" cx="-10797.4" cy="11593" fx="-10797.4" fy="11593" r="10.7" gradientTransform="translate(-498.1 -15308.6) rotate(-45)" xlink:href="#radial-gradient4"/>
    <radialGradient id="radial-gradient37" cx="45" cy="16199.6" fx="45" fy="16199.6" r="13.9" xlink:href="#radial-gradient4"/>
    <radialGradient id="radial-gradient38" cx="-455.4" cy="-14156.2" fx="-455.4" fy="-14156.2" r="32.3" gradientTransform="translate(57 -14040.9) rotate(-180)" xlink:href="#radial-gradient4"/>
    <radialGradient id="radial-gradient39" cx="-466.4" cy="-14138.6" fx="-466.4" fy="-14138.6" r="15.8" gradientTransform="translate(57 -14040.9) rotate(-180)" xlink:href="#radial-gradient4"/>
    <radialGradient id="radial-gradient40" cx="-465.4" cy="-14204.2" fx="-465.4" fy="-14204.2" r="14.7" gradientTransform="translate(57 -14040.9) rotate(-180)" xlink:href="#radial-gradient4"/>
    <radialGradient id="radial-gradient41" cx="-481" cy="-14234.6" fx="-481" fy="-14234.6" r="14.6" gradientTransform="translate(57 -14040.9) rotate(-180)" xlink:href="#radial-gradient4"/>
    <radialGradient id="radial-gradient42" cx="-481" cy="-14136" fx="-481" fy="-14136" r="12.6" gradientTransform="translate(57 -14040.9) rotate(-180)" xlink:href="#radial-gradient4"/>
    <radialGradient id="radial-gradient43" cx="-481" cy="-14174.5" fx="-481" fy="-14174.5" r="14.5" gradientTransform="translate(57 -14040.9) rotate(-180)" xlink:href="#radial-gradient4"/>
    <radialGradient id="radial-gradient44" cx="-481" cy="-14111.9" fx="-481" fy="-14111.9" r="5.4" gradientTransform="translate(57 -14040.9) rotate(-180)" xlink:href="#radial-gradient4"/>
    <radialGradient id="radial-gradient45" cx="-14829.3" cy="1162.6" fx="-14829.3" fy="1162.6" r="32.3" gradientTransform="translate(-695.7 -14759.5) rotate(-90)" xlink:href="#radial-gradient4"/>
    <radialGradient id="radial-gradient46" cx="-14818.3" cy="1180.2" fx="-14818.3" fy="1180.2" r="15.8" gradientTransform="translate(-695.7 -14759.5) rotate(-90)" xlink:href="#radial-gradient4"/>
    <radialGradient id="radial-gradient47" cx="-14819.4" cy="1114.6" fx="-14819.4" fy="1114.6" r="14.7" gradientTransform="translate(-695.7 -14759.5) rotate(-90)" xlink:href="#radial-gradient4"/>
    <radialGradient id="radial-gradient48" cx="-14803.8" cy="1084.2" fx="-14803.8" fy="1084.2" r="14.7" gradientTransform="translate(-695.7 -14759.5) rotate(-90)" xlink:href="#radial-gradient4"/>
    <radialGradient id="radial-gradient49" cx="-14803.8" cy="1182.8" fx="-14803.8" fy="1182.8" r="12.6" gradientTransform="translate(-695.7 -14759.5) rotate(-90)" xlink:href="#radial-gradient4"/>
    <radialGradient id="radial-gradient50" cx="-14803.8" cy="1144.3" fx="-14803.8" fy="1144.3" r="14.5" gradientTransform="translate(-695.7 -14759.5) rotate(-90)" xlink:href="#radial-gradient4"/>
    <radialGradient id="radial-gradient51" cx="-14803.8" cy="1207" fx="-14803.8" fy="1207" r="5.4" gradientTransform="translate(-695.7 -14759.5) rotate(-90)" xlink:href="#radial-gradient4"/>
    <radialGradient id="radial-gradient52" cx="-10651.2" cy="-9560" fx="-10651.2" fy="-9560" r="14.5" gradientTransform="translate(-296.7 -14183.9) rotate(-135)" xlink:href="#radial-gradient4"/>
    <radialGradient id="radial-gradient53" cx="-10154.1" cy="11588.8" fx="-10154.1" fy="11588.8" r="10.7" gradientTransform="translate(-498.1 -15308.6) rotate(-45)" xlink:href="#radial-gradient4"/>
    <radialGradient id="radial-gradient54" cx="539.9" cy="15698.7" fx="539.9" fy="15698.7" r="13.9" xlink:href="#radial-gradient4"/>
    <radialGradient id="radial-gradient55" cx="-11.6" cy="-14156.2" fx="-11.6" fy="-14156.2" r="32.3" gradientTransform="translate(57 -14040.9) rotate(-180)" xlink:href="#radial-gradient4"/>
    <radialGradient id="radial-gradient56" cx="-.6" cy="-14138.6" fx="-.6" fy="-14138.6" r="15.8" gradientTransform="translate(57 -14040.9) rotate(-180)" xlink:href="#radial-gradient4"/>
    <radialGradient id="radial-gradient57" cx="-1.6" cy="-14204.2" fx="-1.6" fy="-14204.2" r="14.7" gradientTransform="translate(57 -14040.9) rotate(-180)" xlink:href="#radial-gradient4"/>
    <radialGradient id="radial-gradient58" cx="14" cy="-14234.6" fx="14" fy="-14234.6" r="14.6" gradientTransform="translate(57 -14040.9) rotate(-180)" xlink:href="#radial-gradient4"/>
    <radialGradient id="radial-gradient59" cx="14" cy="-14136" fx="14" fy="-14136" r="12.6" gradientTransform="translate(57 -14040.9) rotate(-180)" xlink:href="#radial-gradient4"/>
    <radialGradient id="radial-gradient60" cx="14" cy="-14174.5" fx="14" fy="-14174.5" r="14.5" gradientTransform="translate(57 -14040.9) rotate(-180)" xlink:href="#radial-gradient4"/>
    <radialGradient id="radial-gradient61" cx="14" cy="-14111.9" fx="14" fy="-14111.9" r="5.4" gradientTransform="translate(57 -14040.9) rotate(-180)" xlink:href="#radial-gradient4"/>
    <radialGradient id="radial-gradient62" cx="14888.3" cy="803.9" fx="14888.3" fy="803.9" r="32.3" gradientTransform="translate(917.8 -14818.4) rotate(90)" xlink:href="#radial-gradient4"/>
    <radialGradient id="radial-gradient63" cx="14877.3" cy="821.5" fx="14877.3" fy="821.5" r="15.8" gradientTransform="translate(917.8 -14818.4) rotate(90)" xlink:href="#radial-gradient4"/>
    <radialGradient id="radial-gradient64" cx="14878.3" cy="755.9" fx="14878.3" fy="755.9" r="14.7" gradientTransform="translate(917.8 -14818.4) rotate(90)" xlink:href="#radial-gradient4"/>
    <radialGradient id="radial-gradient65" cx="14862.7" cy="725.5" fx="14862.7" fy="725.5" r="14.6" gradientTransform="translate(917.8 -14818.4) rotate(90)" xlink:href="#radial-gradient4"/>
    <radialGradient id="radial-gradient66" cx="14862.8" cy="824.1" fx="14862.8" fy="824.1" r="12.6" gradientTransform="translate(917.8 -14818.4) rotate(90)" xlink:href="#radial-gradient4"/>
    <radialGradient id="radial-gradient67" cx="14862.8" cy="785.6" fx="14862.8" fy="785.6" r="14.5" gradientTransform="translate(917.8 -14818.4) rotate(90)" xlink:href="#radial-gradient4"/>
    <radialGradient id="radial-gradient68" cx="14862.8" cy="848.2" fx="14862.8" fy="848.2" r="5.4" gradientTransform="translate(917.8 -14818.4) rotate(90)" xlink:href="#radial-gradient4"/>
    <radialGradient id="radial-gradient69" cx="10538" cy="-9769.2" fx="10538" fy="-9769.2" r="14.5" gradientTransform="translate(649.7 -14251.8) rotate(135)" xlink:href="#radial-gradient4"/>
    <radialGradient id="radial-gradient70" cx="-10473.7" cy="11269.2" fx="-10473.7" fy="11269.2" r="10.7" gradientTransform="translate(-498.1 -15308.6) rotate(-45)" xlink:href="#radial-gradient4"/>
    <radialGradient id="radial-gradient71" cx="45" cy="15698.7" fx="45" fy="15698.7" r="13.9" xlink:href="#radial-gradient4"/>
  </defs>
  <g>
    <g>
      <rect class="st65" x="12.3" y="12.3" width="556.3" height="565"/>
      <path class="st63" d="M568.6,12.3v565H12.3V12.3h556.3ZM580.9,0H0v589.5h580.9V0h0Z"/>
    </g>
    <path class="st66" d="M555.8,564.1H25.1V25.4h530.6v538.8ZM31.3,558h518.4V31.5H31.3v526.5Z"/>
    <g>
      <path class="st71" d="M290.4,81.9c-117.5,0-212.8,95.3-212.8,212.8s95.3,212.8,212.8,212.8,212.8-95.3,212.8-212.8-95.3-212.8-212.8-212.8h0ZM290.4,69.7c124.1,0,225.1,101,225.1,225.1s-101,225.1-225.1,225.1-225.1-101-225.1-225.1,101-225.1,225.1-225.1h0Z"/>
      <path class="st70" d="M290.4,100.3c-107.4,0-194.4,87-194.4,194.4s87,194.4,194.4,194.4,194.4-87,194.4-194.4-87-194.4-194.4-194.4h0ZM290.4,94.2c110.6,0,200.5,90,200.5,200.6s-90,200.5-200.5,200.5-200.5-90-200.5-200.5,90-200.6,200.5-200.6h0Z"/>
    </g>
    <g>
      <path class="st0" d="M77.5,49.5c.4.4,1,.9,1.8,1.5,1.5,1.2,3.8,2.9,6.4,4.2,2.6,1.3,5.6,2.2,8.1,2.2,1.3,0,2.4-.1,3.6-.4,1-.3,2.5-.7,3.5-1,1-.4,1.8-.7,2.5-1,.7-.3,1.3-.6,2-1,1.3-.8,2.5-1.9,3.6-2.9.5-.5,1-1,1.5-1.4.4-.4.8-.8,1.2-1,.7-.6,1.1-.9,1.1-.9,0,0,.4.3,1,1,.3.4.6.8,1,1.4.3.6.6,1.4.9,2.3.4,1.8.7,4.4-.7,7.6-.7,1.6-1.8,3.4-3.4,4.9-1.6,1.5-3.7,2.8-5.9,3.6-2.3.8-4.5,1.2-7.1,1.2-2.6,0-5.2-.6-7.4-1.5-4.6-1.9-7.8-5.3-9.8-8.3-2-3.1-3-5.9-3.5-8-.3-1-.4-1.8-.5-2.4,0-.6-.1-.9-.1-.9,0,0,.2.2.6.6ZM85.4,67.8c2.5,2,5.1,3.5,7.6,4.6,2.6,1,5.1,1.6,7.5,1.7,4.8.3,9-.9,12.9-2.4,1-.4,1.9-.7,2.9-1.1,1-.4,2.2-.9,3.3-1.3,2.3-.9,4.6-1.7,7-2.2,4.8-1.1,9.9-1.6,15.4-.3,2.7.6,5.4,1.8,7.7,3.6,2.2,1.8,3.8,4,4.7,6.1,1.7,4.2,1.2,7.3.4,9.3-.8,2-2,2.9-3.3,3-1.3.1-2.6-.7-3.9-1.8-1.3-1.1-2.8-2.5-4.2-3-.7-.3-1.3-.3-1.8-.2-.7,0-1.4.1-2.2.2-1.9.1-4.9.7-8.4,1.5-1.9.4-3.8.9-5.9,1.4-1.1.3-2.3.5-3.5.8-1.3.3-2.9.5-4.3.7-6,.7-13,.4-19.7-2.4-3.4-1.3-6.5-3.4-9.3-5.7-2.8-2.5-5.2-5.3-7.2-8.3-4-6.2-6.7-13.2-8.6-20.7,3.6,6.9,8.1,12.7,13.1,16.8ZM114.7,491.3c0,1-6.9,8.7-15.5,3.8-.2-.1-.5-.2-.7-.4-1.3-.7-2.6-1.1-3.8-1.4-.3-1.2-.7-2.5-1.4-3.8-.1-.2-.2-.4-.4-.7-5-8.5,2.8-15.5,3.8-15.5.7,0,5.2,3.9,5.4,9.4.6-1.1,1.1-2.3,1.5-3.7,2.5-9.6,12.9-9,13.6-8.3.7.7,1.3,11.1-8.3,13.6-1.4.4-2.6.9-3.7,1.5,5.5.2,9.4,4.7,9.4,5.4ZM117.3,118.7c-.7.7-11.1,1.3-13.6-8.3-.4-1.4-.9-2.6-1.5-3.7-.2,5.5-4.7,9.4-5.4,9.4s-8.7-6.9-3.8-15.5c.1-.2.2-.4.4-.6.7-1.3,1.1-2.6,1.4-3.8,1.2-.3,2.5-.7,3.8-1.4.2-.1.4-.2.7-.3,8.5-5,15.5,2.8,15.5,3.8,0,.7-3.9,5.2-9.4,5.4,1.1.6,2.3,1.1,3.7,1.5,9.6,2.5,9,12.9,8.3,13.6ZM57.6,56.3c.3,0,7,.4,11.5,4.9,4.5,4.5,4.8,11.2,4.9,11.5v2.8c.1,0-2.6-.1-2.6-.1-.3,0-7-.4-11.5-4.9-4.5-4.5-4.9-11.2-4.9-11.5v-2.8c-.1,0,2.6.1,2.6.1ZM70.4,82.3c3.1,2,5.9,4.4,8.3,7.2,2.3,2.8,4.4,5.9,5.7,9.3,2.8,6.7,3.1,13.8,2.4,19.7-.2,1.5-.4,3-.7,4.3-.3,1.2-.5,2.4-.8,3.5-.5,2.1-.9,4-1.4,5.9-.8,3.5-1.4,6.6-1.5,8.4,0,.8-.1,1.5-.2,2.2,0,.6,0,1.2.2,1.8.5,1.4,1.9,2.9,3,4.2,1.1,1.3,1.9,2.6,1.8,3.9,0,1.3-1,2.5-3,3.3-1.9.8-5.1,1.3-9.3-.4-2-.9-4.3-2.5-6.1-4.7-1.8-2.2-3-5-3.6-7.7-1.3-5.5-.7-10.6.4-15.4.5-2.4,1.3-4.7,2.2-7,.4-1.1.9-2.3,1.3-3.3.5-1.1.7-1.9,1.1-2.9,1.5-3.9,2.7-8.1,2.4-12.9,0-2.4-.7-4.9-1.7-7.5-1.1-2.6-2.6-5.2-4.6-7.7-4.1-5-9.9-9.5-16.8-13.1,7.5,2,14.6,4.6,20.7,8.6ZM51.2,116.8c-.9-.3-1.6-.6-2.3-.9-.6-.3-1.1-.7-1.4-1-.7-.6-1-1-1-1,0,0,.3-.4.8-1.1.3-.3.6-.7,1-1.2.4-.5.9-1,1.4-1.5,1-1.1,2.1-2.3,2.9-3.6.4-.6.7-1.2,1-2,.3-.7.6-1.5,1-2.5.4-1,.8-2.4,1-3.5.3-1.1.4-2.3.4-3.6,0-2.6-.9-5.5-2.2-8.1-1.3-2.6-3-4.8-4.2-6.4-.6-.8-1.2-1.4-1.5-1.8-.4-.4-.6-.6-.6-.6,0,0,.3,0,.9.1.6,0,1.4.2,2.4.5,2,.5,4.9,1.5,7.9,3.5,3,2,6.4,5.1,8.3,9.8.9,2.3,1.5,4.9,1.5,7.4,0,2.6-.4,4.8-1.2,7.1-.8,2.3-2.1,4.4-3.6,5.9-1.5,1.6-3.3,2.7-4.9,3.4-3.3,1.3-5.9,1.1-7.7.7ZM46.7,171.3c-1.7-2.3-2.5-5.1-2.7-7.5-.2-2.5.3-4.7,1.1-6.5.4-.9.8-1.7,1.3-2.4.4-.7,1-1.4,1.5-1.9,2.1-2.3,4.2-3.3,5.7-3.9.7-.3,1.4-.4,1.7-.4.4,0,.6,0,.6,0,0,0,0,.2-.2.6-.1.4-.4.9-.6,1.6-.4,1.3-.9,3.2-.9,5.3,0,2,.5,4.2,1.5,5.5,4.1,5.7,9.2,2.2,9.9,1.2.4-.6.6-1,.6-1.6,0-.6-.4-1.1-.9-1.5-1.1-.7-2-.9-2-.9,0,0,.5-.7,2.1-1.3.8-.3,2.1-.5,3.6.2,1.5.6,2.9,2.2,3.5,4,.7,1.8.9,3.9.5,6.1-.4,2.2-1.4,4.5-3.4,6.5-1,1-2.2,1.9-3.5,2.6-1.4.6-2.9,1.1-4.4,1.3-3.1.3-5.8-.2-8.4-1.4-2.6-1.1-4.9-3-6.6-5.3ZM55,438.9c.2.7.4,1.2.6,1.6.1.4.2.6.2.6,0,0-.2,0-.6,0-.4,0-1-.2-1.7-.5-1.5-.5-3.6-1.6-5.7-3.8-.5-.6-1-1.2-1.5-1.9-.5-.7-.9-1.6-1.3-2.5-.7-1.8-1.3-4-1.1-6.5.1-2.4,1-5.2,2.7-7.6,1.7-2.3,4-4.2,6.6-5.3,2.6-1.2,5.4-1.7,8.4-1.4,1.5.2,3,.6,4.4,1.3,1.3.7,2.6,1.5,3.5,2.5,1.9,2,3,4.3,3.4,6.5.4,2.2.2,4.3-.5,6.1-.7,1.8-2.1,3.4-3.5,4-1.5.7-2.8.5-3.6.2-1.6-.6-2.1-1.3-2.1-1.3,0,0,.9-.2,2-.9.5-.3.9-.9.9-1.5,0-.6-.3-1-.6-1.6-.7-1.1-5.8-4.5-9.9,1.2-1,1.3-1.5,3.5-1.5,5.5,0,2,.4,4,.9,5.3ZM47.6,511.2s.2-.2.6-.6c.4-.4.9-1,1.5-1.8,1.3-1.5,2.9-3.8,4.2-6.4,1.3-2.6,2.2-5.6,2.2-8.1,0-1.3-.1-2.5-.4-3.6-.3-1.1-.7-2.5-1-3.5-.4-1-.7-1.8-1-2.5-.3-.7-.6-1.3-1-2-.8-1.3-1.9-2.5-2.9-3.6-.5-.5-1-1-1.4-1.5-.4-.4-.8-.8-1-1.2-.6-.7-.8-1.1-.8-1.1,0,0,.3-.4,1-1,.4-.3.8-.6,1.4-.9.6-.3,1.3-.6,2.3-.9,1.8-.4,4.4-.6,7.7.7,1.6.7,3.3,1.8,4.9,3.4,1.5,1.6,2.8,3.7,3.6,5.9.9,2.3,1.2,4.5,1.2,7.1,0,2.6-.6,5.2-1.5,7.4-1.9,4.6-5.3,7.8-8.3,9.8-3.1,2-5.9,3-7.9,3.5-1,.3-1.8.4-2.4.5-.6,0-.9.1-.9.1ZM49.7,515.8c6.9-3.6,12.7-8.1,16.8-13.1,2-2.5,3.5-5.1,4.6-7.7,1-2.6,1.6-5.1,1.7-7.5.3-4.8-.9-9-2.4-12.9-.4-1-.7-1.9-1.1-2.9-.4-1-.9-2.2-1.3-3.3-.9-2.3-1.6-4.6-2.2-7-1.1-4.7-1.7-9.9-.4-15.4.7-2.7,1.9-5.5,3.6-7.7,1.8-2.2,4-3.8,6.1-4.7,4.2-1.7,7.3-1.2,9.3-.4,2,.8,2.9,2,3,3.3.1,1.3-.7,2.6-1.8,3.9-1.1,1.3-2.5,2.8-3,4.2-.3.7-.3,1.3-.2,1.8,0,.7.1,1.4.2,2.2.1,1.9.7,4.9,1.5,8.4.4,1.9.9,3.8,1.4,5.9.3,1.1.5,2.3.8,3.5.3,1.3.5,2.9.7,4.3.7,6,.4,13-2.4,19.7-1.3,3.4-3.4,6.5-5.7,9.3-2.4,2.8-5.2,5.1-8.3,7.2-6.2,4-13.2,6.7-20.7,8.6ZM69.1,528.3c-4.5,4.5-11.2,4.8-11.5,4.9h-2.7c0,.1.1-2.6.1-2.6,0-.3.4-7,4.9-11.5,4.5-4.5,11.2-4.9,11.5-4.9h2.8c0-.1-.1,2.6-.1,2.6,0,.3-.4,7-4.9,11.5ZM115.4,537c-.3.9-.6,1.7-.9,2.3-.3.6-.7,1.1-.9,1.4-.6.7-1,1-1,1,0,0-.4-.3-1.1-.8-.3-.3-.7-.6-1.2-1.1-.5-.4-1-.9-1.5-1.4-1.1-1-2.3-2.1-3.6-2.9-.6-.4-1.3-.7-2-1.1-.7-.3-1.4-.6-2.5-1-1-.4-2.4-.8-3.5-1.1-1.1-.3-2.3-.4-3.6-.4-2.6,0-5.5.9-8.1,2.2-2.6,1.3-4.8,3-6.4,4.2-.8.6-1.4,1.2-1.8,1.5-.4.4-.7.6-.7.6,0,0,0-.3.1-.9,0-.6.2-1.4.5-2.4.5-2,1.5-4.9,3.5-7.9,2-3,5.1-6.4,9.8-8.3,2.3-.9,4.9-1.5,7.4-1.5,2.7,0,4.8.4,7.1,1.2,2.3.8,4.4,2.1,5.9,3.6,1.6,1.5,2.7,3.2,3.4,4.8,1.3,3.3,1.1,5.9.7,7.7ZM142,522.8c-5.5,1.3-10.6.7-15.4-.4-2.4-.6-4.7-1.3-7-2.2-1.1-.4-2.2-.9-3.3-1.3-1.1-.5-1.9-.7-2.9-1.2-3.9-1.5-8.1-2.7-12.9-2.4-2.4,0-4.9.7-7.5,1.7-2.5,1.1-5.2,2.6-7.6,4.6-5,4.1-9.5,9.9-13.1,16.8,2-7.5,4.6-14.6,8.6-20.7,2-3.1,4.4-5.9,7.2-8.3,2.8-2.3,5.9-4.4,9.3-5.7,6.7-2.8,13.8-3.2,19.7-2.4,1.5.2,3.1.4,4.3.7,1.2.3,2.4.5,3.5.8,2.1.5,4,.9,5.9,1.4,3.5.8,6.6,1.4,8.4,1.5.8,0,1.5.1,2.2.2.6,0,1.1,0,1.8-.2,1.4-.5,2.9-1.9,4.2-3,1.3-1.1,2.6-1.9,3.9-1.8,1.3,0,2.5,1,3.3,3,.8,1.9,1.3,5.1-.4,9.3-.9,2-2.4,4.3-4.7,6.1-2.2,1.8-5,3-7.7,3.6ZM175.2,534.9c-1.1,2.6-3,4.9-5.3,6.6-2.3,1.7-5.1,2.5-7.5,2.7-2.5.2-4.7-.4-6.5-1.1-.9-.4-1.7-.8-2.4-1.3-.7-.4-1.4-1-1.9-1.5-2.3-2.1-3.3-4.2-3.9-5.7-.3-.7-.4-1.4-.4-1.8,0-.4-.1-.6-.1-.6,0,0,.2,0,.6.2.4.1.9.4,1.6.6,1.3.4,3.3.9,5.3.9,2,0,4.2-.5,5.5-1.5,5.7-4.1,2.2-9.2,1.2-9.9-.6-.3-1-.6-1.5-.6-.6,0-1.1.4-1.5.9-.7,1.1-.9,2-.9,2,0,0-.7-.5-1.3-2.1-.3-.8-.5-2.1.2-3.6.6-1.5,2.2-2.9,4-3.5,1.8-.7,3.9-.9,6.1-.5,2.2.4,4.5,1.4,6.5,3.4,1,.9,1.9,2.2,2.5,3.5.7,1.4,1.1,2.9,1.3,4.4.3,3-.2,5.8-1.4,8.4ZM175.3,67.4c-.7,1.4-1.5,2.6-2.5,3.5-2,1.9-4.3,3-6.5,3.4-2.2.4-4.3.2-6.1-.5-1.8-.7-3.4-2.1-4-3.6-.7-1.5-.5-2.8-.2-3.6.6-1.6,1.3-2.1,1.3-2.1,0,0,.2.9.9,2,.3.5.9.9,1.5.9.6,0,1-.3,1.5-.6,1.1-.6,4.5-5.8-1.2-9.9-1.2-1-3.5-1.5-5.5-1.5-2.1,0-4,.4-5.3.9-.7.2-1.2.4-1.6.6-.4.1-.6.2-.6.2,0,0,0-.2.1-.6,0-.4.2-1,.4-1.7.5-1.5,1.6-3.6,3.9-5.7.6-.5,1.2-1,1.9-1.5.7-.5,1.5-.9,2.4-1.3,1.8-.7,4-1.3,6.5-1.1,2.4.1,5.2,1,7.5,2.7,2.3,1.7,4.2,4,5.3,6.6,1.2,2.6,1.7,5.4,1.4,8.4-.2,1.5-.6,3-1.3,4.4ZM510.5,507.2c-3.1-2-5.9-4.4-8.3-7.2-2.3-2.8-4.4-5.9-5.7-9.3-2.8-6.7-3.2-13.8-2.4-19.7.2-1.5.4-3.1.7-4.3.3-1.2.5-2.4.8-3.5.5-2.1.9-4,1.4-5.9.8-3.5,1.4-6.6,1.5-8.4,0-.7.1-1.5.2-2.2,0-.6,0-1.2-.2-1.8-.5-1.4-1.9-2.9-3-4.2-1.1-1.3-1.9-2.6-1.8-3.9,0-1.3,1-2.5,3-3.3,1.9-.8,5.1-1.3,9.3.4,2.1.9,4.3,2.4,6.1,4.7,1.8,2.2,3,5,3.6,7.7,1.3,5.5.7,10.6-.4,15.4-.5,2.4-1.3,4.7-2.2,7-.4,1.1-.9,2.3-1.3,3.3-.5,1-.7,1.9-1.2,2.9-1.5,3.9-2.7,8.1-2.4,12.9,0,2.4.7,4.9,1.7,7.5,1.1,2.5,2.6,5.2,4.6,7.7,4.1,5,9.9,9.5,16.8,13.1-7.5-2-14.6-4.6-20.7-8.6ZM529.7,472.7c.9.3,1.7.6,2.3.9.6.3,1.1.6,1.4.9.7.6,1,1,1,1,0,0-.3.5-.8,1.1-.3.3-.6.7-1,1.2-.4.5-.9,1-1.4,1.5-1,1.1-2.1,2.3-2.9,3.6-.4.6-.7,1.3-1.1,2-.3.7-.6,1.4-1,2.5-.4,1-.8,2.4-1.1,3.5-.2,1.1-.4,2.3-.4,3.6,0,2.6.9,5.5,2.2,8.1,1.3,2.6,3,4.8,4.2,6.4.6.8,1.2,1.4,1.5,1.8.4.4.6.6.6.6,0,0-.3,0-.8-.1-.6-.1-1.4-.3-2.4-.5-2-.5-4.9-1.5-7.9-3.5-3-2-6.4-5.1-8.3-9.8-.9-2.3-1.5-4.9-1.5-7.4,0-2.6.4-4.8,1.2-7.1.8-2.3,2.1-4.4,3.6-5.9,1.5-1.6,3.2-2.7,4.8-3.4,3.3-1.3,5.9-1.1,7.7-.7ZM534.2,418.2c1.7,2.3,2.6,5.1,2.7,7.6.2,2.5-.3,4.7-1.1,6.5-.4.9-.8,1.7-1.3,2.5-.5.7-1,1.4-1.5,1.9-2.1,2.3-4.2,3.3-5.7,3.8-.7.3-1.4.4-1.7.5-.4,0-.6,0-.6,0,0,0,0-.2.2-.6.1-.4.4-.9.6-1.6.4-1.3.9-3.3.9-5.3,0-2-.5-4.2-1.5-5.5-4.1-5.7-9.2-2.2-9.9-1.2-.3.6-.6,1-.6,1.6,0,.6.4,1.1.9,1.5,1.1.7,2,.9,2,.9,0,0-.5.7-2.1,1.3-.8.3-2.1.5-3.6-.2-1.5-.6-2.9-2.2-3.5-4-.7-1.8-.9-3.9-.5-6.1.4-2.2,1.4-4.5,3.4-6.5.9-1,2.2-1.8,3.5-2.5,1.4-.7,2.9-1.1,4.4-1.3,3.1-.3,5.8.2,8.4,1.4,2.6,1.1,4.9,3,6.6,5.3ZM525.8,150.6c-.2-.7-.5-1.2-.6-1.6-.1-.4-.2-.6-.2-.6,0,0,.2,0,.6,0,.4,0,1,.2,1.7.4,1.5.5,3.6,1.6,5.7,3.9.5.6,1,1.2,1.5,1.9.5.7.9,1.5,1.3,2.4.7,1.8,1.3,4,1.1,6.5-.1,2.4-.9,5.2-2.7,7.5-1.7,2.3-4,4.3-6.6,5.3-2.6,1.2-5.4,1.7-8.4,1.4-1.5-.2-3-.6-4.4-1.3-1.3-.7-2.6-1.5-3.5-2.6-2-2-3-4.3-3.4-6.5-.4-2.2-.2-4.3.5-6.1.7-1.8,2.1-3.4,3.5-4,1.5-.6,2.8-.5,3.6-.2,1.6.6,2.1,1.3,2.1,1.3,0,0-.9.2-2,.9-.5.3-.9.9-.9,1.5,0,.6.3,1,.6,1.6.7,1.1,5.8,4.5,9.9-1.2,1-1.3,1.5-3.5,1.5-5.5,0-2-.5-4-.9-5.3ZM533.3,78.3s-.2.2-.6.6c-.4.4-.9,1-1.5,1.8-1.2,1.5-2.9,3.8-4.2,6.4-1.3,2.6-2.2,5.5-2.2,8.1,0,1.3.1,2.5.4,3.6.3,1,.7,2.5,1.1,3.5.4,1,.7,1.8,1,2.5.3.7.6,1.3,1.1,2,.8,1.3,1.9,2.5,2.9,3.6.5.5,1,1,1.4,1.5.4.5.8.8,1.1,1.2.6.7.8,1.1.8,1.1,0,0-.3.4-1,1-.4.3-.8.6-1.4,1-.6.3-1.4.6-2.3.9-1.8.4-4.4.6-7.7-.7-1.6-.7-3.3-1.8-4.8-3.4-1.5-1.6-2.8-3.7-3.6-5.9-.9-2.3-1.2-4.5-1.2-7.1,0-2.6.6-5.1,1.5-7.4,1.9-4.6,5.3-7.8,8.3-9.8,3.1-2,5.9-2.9,7.9-3.5,1-.3,1.8-.5,2.4-.5.5,0,.9-.2.9-.2ZM531.2,73.7c-6.9,3.6-12.7,8.1-16.8,13.1-2,2.5-3.5,5.1-4.6,7.7-1,2.6-1.6,5.1-1.7,7.5-.3,4.8.9,9,2.4,12.9.4,1,.7,1.8,1.2,2.9.4,1,.9,2.2,1.3,3.3.9,2.3,1.6,4.6,2.2,7,1.1,4.7,1.7,9.9.4,15.4-.7,2.7-1.9,5.4-3.6,7.7-1.8,2.2-4,3.8-6.1,4.7-4.2,1.7-7.3,1.2-9.3.4-2-.8-2.9-2-3-3.3-.1-1.3.7-2.6,1.8-3.9,1.1-1.3,2.5-2.8,3-4.2.3-.7.3-1.3.2-1.8,0-.7-.1-1.4-.2-2.2-.2-1.9-.7-4.9-1.5-8.4-.4-1.9-.9-3.8-1.4-5.9-.3-1.2-.5-2.3-.8-3.5-.3-1.3-.5-2.9-.7-4.3-.7-6-.4-13,2.4-19.7,1.3-3.4,3.4-6.5,5.7-9.3,2.4-2.8,5.2-5.2,8.3-7.2,6.2-4,13.2-6.7,20.7-8.6ZM511.8,61.2c4.5-4.5,11.2-4.8,11.5-4.9h2.8c0-.1-.1,2.6-.1,2.6,0,.3-.4,7-4.9,11.5h0c-4.5,4.5-11.2,4.9-11.5,4.9h-2.8c0,.1.1-2.6.1-2.6,0-.3.4-7,4.9-11.5ZM465.5,52.5c.3-.9.6-1.6.9-2.3.3-.6.7-1.1.9-1.4.6-.7,1-1,1-1,0,0,.5.3,1.1.8.3.3.7.6,1.2,1.1.5.4,1,.9,1.5,1.4,1.1,1,2.3,2.1,3.6,2.9.6.4,1.2.7,1.9,1,.7.3,1.5.7,2.5,1,1,.4,2.4.8,3.5,1.1,1.1.3,2.3.4,3.6.4,2.6,0,5.5-.9,8.1-2.2,2.6-1.3,4.8-3,6.4-4.2.8-.6,1.4-1.2,1.8-1.5.4-.4.6-.6.6-.6,0,0,0,.3-.1.9,0,.6-.2,1.4-.5,2.4-.5,2-1.5,4.9-3.5,8-2,3-5.1,6.4-9.8,8.3-2.3.9-4.9,1.5-7.4,1.5-2.6,0-4.8-.4-7.1-1.2-2.3-.8-4.4-2.1-6-3.6-1.6-1.5-2.7-3.2-3.4-4.9-1.3-3.2-1.1-5.8-.7-7.6ZM438.9,66.7c5.5-1.3,10.6-.7,15.4.3,2.4.6,4.7,1.3,7,2.2,1.1.4,2.2.9,3.3,1.3,1,.5,1.9.7,2.9,1.2,3.9,1.5,8.1,2.7,12.9,2.4,2.4,0,4.9-.7,7.5-1.7,2.5-1.1,5.2-2.6,7.7-4.6,5-4.1,9.5-9.9,13.1-16.8-2,7.5-4.6,14.6-8.6,20.7-2,3.1-4.4,5.9-7.2,8.3-2.8,2.3-5.9,4.4-9.3,5.7-6.7,2.8-13.8,3.2-19.7,2.4-1.5-.2-3-.4-4.3-.7-1.2-.3-2.4-.5-3.5-.8-2.1-.5-4-.9-5.9-1.4-3.5-.8-6.5-1.4-8.4-1.5-.7,0-1.5-.1-2.2-.2-.6,0-1.2,0-1.8.2-1.4.5-2.9,1.9-4.2,3-1.3,1.1-2.6,1.9-3.9,1.8-1.3-.1-2.5-1.1-3.3-3-.8-2-1.3-5.1.4-9.3.9-2.1,2.4-4.3,4.7-6.1,2.2-1.8,5-3,7.7-3.6ZM471.8,484.4c-9.6-2.5-9-12.9-8.3-13.6.7-.7,11.1-1.3,13.6,8.3.4,1.4.9,2.6,1.5,3.7.2-5.5,4.7-9.4,5.4-9.4,1,0,8.7,6.9,3.8,15.5-.1.2-.2.5-.4.7-.7,1.3-1.1,2.6-1.4,3.8-1.2.3-2.5.7-3.8,1.4-.2.1-.4.2-.7.4-8.5,5-15.5-2.8-15.5-3.8,0-.7,3.9-5.3,9.4-5.4-1.1-.6-2.3-1.1-3.7-1.5ZM484.1,116.1c-.7,0-5.2-3.8-5.4-9.4-.6,1.1-1.1,2.3-1.5,3.7-2.5,9.6-12.9,9-13.6,8.3-.7-.7-1.3-11.1,8.3-13.6,1.4-.4,2.6-.9,3.7-1.5-5.5-.2-9.4-4.7-9.4-5.4s6.9-8.8,15.5-3.8c.2.1.5.2.7.4,1.3.7,2.6,1.1,3.8,1.4.3,1.2.7,2.5,1.4,3.8.1.2.2.4.4.6,5,8.5-2.8,15.5-3.8,15.5ZM405.7,54.6c1.1-2.6,3-4.9,5.3-6.6,2.3-1.7,5.1-2.6,7.5-2.7,2.5-.2,4.7.3,6.5,1.1.9.4,1.7.8,2.5,1.3.7.5,1.4,1,1.9,1.5,2.3,2.1,3.3,4.2,3.9,5.7.3.7.4,1.4.4,1.7,0,.4.1.6.1.6,0,0-.2,0-.6-.2-.4-.1-.9-.4-1.6-.6-1.3-.5-3.3-.9-5.3-.9-2,0-4.2.4-5.5,1.5-5.7,4.1-2.2,9.2-1.2,9.9.6.4,1,.6,1.6.6.6,0,1.1-.4,1.5-.9.7-1.1.9-2,.9-2,0,0,.7.5,1.3,2.1.3.8.5,2.1-.2,3.6-.6,1.5-2.2,2.9-4,3.6-1.8.7-3.9.9-6.1.5-2.2-.4-4.5-1.4-6.5-3.4-1-1-1.9-2.2-2.5-3.5-.7-1.4-1.1-2.9-1.3-4.4-.3-3,.2-5.8,1.4-8.4ZM433.7,532.9c0,.4-.2,1-.4,1.7-.5,1.5-1.6,3.6-3.9,5.7-.6.5-1.2,1-1.9,1.5-.7.5-1.6.9-2.5,1.3-1.8.7-4,1.3-6.5,1.1-2.4-.1-5.2-.9-7.6-2.7-2.3-1.7-4.2-4-5.3-6.6-1.2-2.6-1.7-5.4-1.4-8.4.2-1.5.6-3,1.3-4.4.7-1.3,1.5-2.6,2.5-3.5,2-2,4.3-3,6.5-3.4,2.2-.4,4.3-.2,6.1.5,1.8.7,3.4,2,4,3.5.7,1.5.5,2.8.2,3.6-.6,1.6-1.3,2.1-1.3,2.1,0,0-.2-.9-.9-2-.3-.5-.9-.9-1.5-.9s-1,.3-1.6.6c-1.1.7-4.5,5.8,1.2,9.9,1.2,1,3.5,1.5,5.5,1.5,2,0,4-.5,5.3-.9.7-.2,1.2-.5,1.6-.6.4-.1.6-.2.6-.2,0,0,0,.2-.1.6ZM503.3,540c-.4-.4-1-.9-1.8-1.5-1.5-1.2-3.8-2.9-6.4-4.2-2.6-1.3-5.6-2.2-8.1-2.2-1.3,0-2.5.1-3.6.4-1,.3-2.5.7-3.5,1.1-1,.4-1.8.7-2.5,1-.7.3-1.3.6-1.9,1.1-1.3.8-2.5,1.9-3.6,2.9-.5.5-1,1-1.5,1.4-.4.4-.8.8-1.2,1.1-.7.6-1.1.8-1.1.8,0,0-.4-.3-1-1-.3-.3-.6-.8-.9-1.4-.3-.6-.6-1.3-.9-2.3-.4-1.8-.7-4.4.7-7.7.6-1.6,1.8-3.3,3.4-4.8,1.6-1.5,3.7-2.8,5.9-3.6,2.3-.8,4.5-1.2,7.1-1.2,2.6,0,5.2.6,7.4,1.5,4.6,1.9,7.8,5.3,9.8,8.3,2,3.1,3,5.9,3.5,7.9.3,1,.4,1.8.5,2.4.1.6.1.9.1.9,0,0-.2-.2-.6-.6ZM495.5,521.7c-2.5-2-5.1-3.5-7.7-4.6-2.6-1-5.1-1.6-7.5-1.7-4.8-.3-9,.9-12.9,2.4-1,.4-1.9.7-2.9,1.2-1,.4-2.2.9-3.3,1.3-2.3.9-4.6,1.7-7,2.2-4.8,1.1-9.9,1.6-15.4.3-2.7-.6-5.4-1.8-7.7-3.6-2.3-1.8-3.8-4-4.7-6.1-1.7-4.2-1.2-7.3-.4-9.3.8-2,2-2.9,3.3-3,1.3-.1,2.6.7,3.9,1.8,1.3,1.1,2.8,2.6,4.2,3,.7.3,1.3.3,1.8.2.7,0,1.4-.1,2.2-.2,1.9-.2,4.9-.7,8.5-1.5,1.9-.4,3.8-.9,5.9-1.4,1.1-.3,2.3-.5,3.5-.8,1.3-.3,2.9-.5,4.3-.7,6-.8,13-.4,19.7,2.4,3.4,1.3,6.5,3.4,9.3,5.7,2.7,2.4,5.1,5.2,7.2,8.3,4,6.2,6.7,13.2,8.6,20.7-3.6-6.9-8.1-12.7-13.1-16.8ZM523.3,533.2c-.3,0-7-.4-11.5-4.9-4.5-4.5-4.9-11.2-4.9-11.5v-2.8c-.1,0,2.6.1,2.6.1.3,0,7,.4,11.5,4.9,4.5,4.5,4.8,11.2,4.9,11.5v2.7c.1,0-2.6,0-2.6,0Z"/>
      <path class="st73" d="M514.4,502.7c-2-2.5-3.5-5.1-4.6-7.7-1-2.6-1.6-5.1-1.7-7.5-.3-4.8.9-9,2.4-12.9.4-1,.7-1.9,1.2-2.9.4-1,.9-2.2,1.3-3.3.9-2.3,1.7-4.6,2.2-7,1.1-4.7,1.7-9.9.4-15.4-.7-2.7-1.9-5.5-3.6-7.7-1.8-2.2-4-3.8-6.1-4.7-4.2-1.7-7.3-1.2-9.3-.4-2,.8-2.9,2-3,3.3-.1,1.3.7,2.6,1.8,3.9,1.1,1.3,2.6,2.8,3,4.2.3.7.3,1.3.2,1.8,0,.7-.1,1.4-.2,2.2-.2,1.9-.7,4.9-1.5,8.4-.4,1.9-.9,3.8-1.4,5.9-.3,1.1-.5,2.3-.8,3.5-.3,1.3-.5,2.9-.7,4.3-.7,6-.4,13,2.4,19.7,1.3,3.4,3.4,6.5,5.7,9.3,2.4,2.8,5.2,5.1,8.3,7.2,6.2,4,13.2,6.7,20.7,8.6-6.9-3.6-12.7-8.1-16.8-13.1Z"/>
      <path class="st72" d="M517.2,476.8c-1.5,1.6-2.8,3.7-3.6,5.9-.8,2.3-1.2,4.5-1.2,7.1,0,2.6.6,5.2,1.5,7.4,1.9,4.6,5.3,7.8,8.3,9.8,3.1,2,5.9,3,7.9,3.5,1,.3,1.8.4,2.4.5.5,0,.8.1.8.1,0,0-.2-.2-.6-.6-.4-.4-.9-1-1.5-1.8-1.2-1.5-2.9-3.8-4.2-6.4-1.3-2.6-2.2-5.6-2.2-8.1,0-1.3.1-2.5.4-3.6.3-1.1.7-2.5,1.1-3.5.4-1,.7-1.8,1-2.5.3-.7.6-1.3,1.1-2,.8-1.3,1.9-2.5,2.9-3.6.5-.5,1-1,1.4-1.5.4-.4.8-.8,1-1.2.6-.7.8-1.1.8-1.1,0,0-.3-.4-1-1-.4-.3-.8-.6-1.4-.9-.6-.3-1.4-.6-2.3-.9-1.8-.4-4.4-.6-7.7.7-1.6.7-3.3,1.8-4.8,3.4Z"/>
      <path class="st67" d="M519.2,411.5c-1.5.2-3,.6-4.4,1.3-1.3.7-2.6,1.5-3.5,2.5-2,2-3,4.3-3.4,6.5-.4,2.2-.2,4.3.5,6.1.7,1.8,2.1,3.4,3.5,4,1.5.7,2.8.5,3.6.2,1.6-.6,2.1-1.3,2.1-1.3,0,0-.9-.2-2-.9-.5-.3-.9-.9-.9-1.5,0-.6.3-1,.6-1.6.7-1.1,5.8-4.5,9.9,1.2,1,1.3,1.5,3.5,1.5,5.5,0,2-.5,4-.9,5.3-.2.7-.5,1.2-.6,1.6-.1.4-.2.6-.2.6,0,0,.2,0,.6,0,.4,0,1-.2,1.7-.5,1.5-.5,3.6-1.6,5.7-3.8.5-.6,1-1.2,1.5-1.9.5-.7.9-1.6,1.3-2.5.7-1.8,1.3-4,1.1-6.5-.1-2.4-1-5.2-2.7-7.6-1.7-2.3-4-4.2-6.6-5.3-2.6-1.2-5.4-1.7-8.4-1.4Z"/>
      <path class="st74" d="M537.9,415v-38.3c0,0-7.8,8.6-7.8,19.2s7.8,19.1,7.8,19.2Z"/>
      <path class="st69" d="M537.9,510.9v-33c0,0-6.7,7.4-6.7,16.5s6.7,16.5,6.7,16.5Z"/>
      <path class="st68" d="M534.2,455.5c.7,1.3,1.2,2.5,1.5,3.7-4-3.8-9.9-3.3-10.5-2.8-.7.7-1.3,11.1,8.3,13.6.2,0,.5.2.7.2,1.4.5,2.6,1.1,3.6,1.7v-31.9c-1,0-8.7,7-3.7,15.5Z"/>
      <path class="st48" d="M532.6,518.6c0,3,2.4,5.4,5.4,5.4v-10.8c-3,0-5.4,2.4-5.4,5.4Z"/>
      <path class="st51" d="M492.8,509.4c-2.8-2.3-5.9-4.4-9.3-5.7-6.7-2.8-13.8-3.2-19.7-2.4-1.5.2-3,.4-4.3.7-1.2.3-2.4.5-3.5.8-2.1.5-4,.9-5.9,1.4-3.5.8-6.6,1.4-8.5,1.5-.7,0-1.5.1-2.2.2-.6,0-1.2,0-1.8-.2-1.4-.5-2.9-1.9-4.2-3-1.3-1.1-2.6-1.9-3.9-1.8-1.3,0-2.5,1.1-3.3,3-.8,1.9-1.3,5.1.4,9.3.9,2,2.4,4.3,4.7,6.1,2.2,1.8,5,3,7.7,3.6,5.5,1.3,10.6.7,15.4-.3,2.4-.6,4.7-1.3,7-2.2,1.1-.4,2.2-.9,3.3-1.3,1-.5,1.9-.7,2.9-1.2,3.9-1.5,8.1-2.7,12.9-2.4,2.4,0,4.9.7,7.5,1.7,2.5,1.1,5.2,2.6,7.7,4.6,5,4.1,9.5,9.9,13.1,16.8-2-7.5-4.6-14.6-8.6-20.7-2-3.1-4.4-5.9-7.2-8.3Z"/>
      <path class="st45" d="M503.3,537.3c-.5-2-1.5-4.9-3.5-7.9-2-3-5.1-6.4-9.8-8.3-2.3-.9-4.9-1.5-7.4-1.5-2.6,0-4.8.4-7.1,1.2-2.3.8-4.4,2.1-5.9,3.6-1.6,1.5-2.7,3.2-3.4,4.8-1.3,3.3-1.1,5.9-.7,7.7.3.9.6,1.7.9,2.3.3.6.7,1.1.9,1.4.6.7,1,1,1,1,0,0,.5-.3,1.1-.8.3-.3.7-.6,1.2-1.1.5-.4,1-.9,1.5-1.4,1.1-1,2.3-2.1,3.6-2.9.6-.4,1.2-.7,1.9-1.1.7-.3,1.5-.6,2.5-1,1-.4,2.4-.8,3.5-1.1,1.1-.3,2.3-.4,3.6-.4,2.6,0,5.5.9,8.1,2.2,2.6,1.3,4.8,3,6.4,4.2.8.6,1.4,1.2,1.8,1.5.4.4.6.6.6.6,0,0,0-.3-.1-.9,0-.6-.2-1.4-.5-2.4Z"/>
      <path class="st50" d="M431.6,533.1c-1.3.4-3.3.9-5.3.9-2,0-4.3-.5-5.5-1.5-5.7-4.1-2.2-9.2-1.2-9.9.6-.3,1-.6,1.6-.6s1.1.4,1.5.9c.7,1.1.9,2,.9,2,0,0,.7-.5,1.3-2.1.3-.8.5-2.1-.2-3.6-.6-1.5-2.2-2.9-4-3.5-1.8-.7-3.9-.9-6.1-.5-2.2.4-4.5,1.4-6.5,3.4-1,.9-1.9,2.2-2.5,3.5-.6,1.4-1.1,2.9-1.3,4.4-.3,3,.2,5.8,1.4,8.4,1.1,2.6,3,4.9,5.3,6.6,2.3,1.7,5.1,2.5,7.6,2.7,2.5.2,4.7-.3,6.5-1.1.9-.4,1.7-.8,2.5-1.3.7-.5,1.4-1,1.9-1.5,2.3-2.1,3.3-4.2,3.9-5.7.3-.7.4-1.4.4-1.7,0-.4.1-.6.1-.6,0,0-.2,0-.6.2-.4.1-.9.4-1.6.6Z"/>
      <path class="st52" d="M369.4,545.2h38.4s-8.6-7.8-19.2-7.8-19.2,7.8-19.2,7.8Z"/>
      <path class="st46" d="M470.6,545.2h33s-7.4-6.8-16.5-6.8-16.5,6.8-16.5,6.8Z"/>
      <path class="st43" d="M462.7,540.8c-2.5-9.6-12.9-9-13.6-8.3-.5.5-1,6.4,2.8,10.4-1.2-.3-2.4-.8-3.7-1.5-8.5-5-15.5,2.8-15.5,3.8h31.9c-.6-1.1-1.2-2.3-1.7-3.7,0-.2-.2-.5-.2-.7Z"/>
      <path class="st44" d="M511.3,539.8c-3,0-5.4,2.4-5.4,5.4h10.8c0-3-2.4-5.4-5.4-5.4Z"/>
      <path class="st47" d="M466.2,491.3c0,1,6.9,8.7,15.5,3.8.2-.1.5-.2.7-.4,1.3-.7,2.6-1.1,3.8-1.4.3-1.2.7-2.5,1.4-3.8.1-.2.2-.4.4-.7,5-8.5-2.8-15.5-3.8-15.5-.7,0-5.2,3.9-5.4,9.4-.6-1.1-1.1-2.3-1.5-3.7-2.5-9.6-12.9-9-13.6-8.3-.7.7-1.3,11.1,8.3,13.6,1.4.4,2.6.9,3.7,1.5-5.5.2-9.4,4.7-9.4,5.4Z"/>
      <path class="st49" d="M521.1,519c-4.5-4.5-11.2-4.8-11.5-4.9h-2.8c0-.1.1,2.6.1,2.6,0,.3.4,7,4.9,11.5,4.5,4.5,11.2,4.8,11.5,4.9h2.7c0,0-.1-2.6-.1-2.6,0-.3-.4-7-4.9-11.5Z"/>
      <path class="st21" d="M537.9,531.3c-7.6,0-13.9,6.2-13.9,13.9h13.9v-13.9Z"/>
      <path class="st26" d="M78.7,500c2.3-2.8,4.4-5.9,5.7-9.3,2.8-6.7,3.2-13.8,2.4-19.7-.2-1.5-.4-3.1-.7-4.3-.3-1.2-.5-2.4-.8-3.5-.5-2.1-.9-4-1.4-5.9-.8-3.5-1.4-6.6-1.5-8.4,0-.7-.1-1.5-.2-2.2,0-.6,0-1.2.2-1.8.5-1.4,1.9-2.9,3-4.2,1.1-1.3,1.9-2.6,1.8-3.9,0-1.3-1-2.5-3-3.3-1.9-.8-5.1-1.3-9.3.4-2,.9-4.3,2.4-6.1,4.7-1.8,2.2-3,5-3.6,7.7-1.3,5.5-.7,10.6.4,15.4.6,2.4,1.3,4.7,2.2,7,.4,1.1.9,2.3,1.3,3.3.4,1,.7,1.9,1.1,2.9,1.5,3.9,2.7,8.1,2.4,12.9,0,2.4-.7,4.9-1.7,7.5-1.1,2.5-2.6,5.2-4.6,7.7-4.1,5-9.9,9.5-16.8,13.1,7.5-2,14.6-4.6,20.7-8.6,3.1-2,5.9-4.4,8.3-7.2Z"/>
      <path class="st20" d="M58.7,507.1c3-2,6.4-5.1,8.3-9.8.9-2.3,1.5-4.9,1.5-7.4,0-2.6-.4-4.8-1.2-7.1-.8-2.3-2.1-4.4-3.6-5.9-1.5-1.6-3.3-2.7-4.9-3.4-3.3-1.3-5.9-1.1-7.7-.7-.9.3-1.6.6-2.3.9-.6.3-1.1.6-1.4.9-.7.6-1,1-1,1,0,0,.3.5.8,1.1.3.3.6.7,1,1.2.4.5.9,1,1.4,1.5,1,1.1,2.1,2.3,2.9,3.6.4.6.7,1.3,1,2,.3.7.6,1.4,1,2.5.4,1,.8,2.4,1,3.5.3,1.1.4,2.3.4,3.6,0,2.6-.9,5.5-2.2,8.1-1.3,2.6-3,4.8-4.2,6.4-.6.8-1.2,1.4-1.5,1.8-.4.4-.6.6-.6.6,0,0,.3,0,.9-.1.6-.1,1.4-.3,2.4-.5,2-.5,4.9-1.5,7.9-3.5Z"/>
      <path class="st19" d="M65.5,426.9c.3.6.6,1,.6,1.6,0,.5-.4,1.1-.9,1.5-1.1.7-2,.9-2,.9,0,0,.5.7,2.1,1.3.8.3,2.1.5,3.6-.2,1.5-.6,2.9-2.2,3.5-4,.7-1.8.9-3.9.5-6.1-.4-2.2-1.4-4.5-3.4-6.5-1-1-2.2-1.8-3.5-2.5-1.4-.7-2.9-1.1-4.4-1.3-3.1-.3-5.8.2-8.4,1.4-2.6,1.1-4.9,3-6.6,5.3-1.7,2.3-2.5,5.1-2.7,7.6-.2,2.5.3,4.7,1.1,6.5.4.9.8,1.7,1.3,2.5.4.7,1,1.4,1.5,1.9,2.1,2.3,4.2,3.3,5.7,3.8.7.3,1.4.4,1.7.5.4,0,.6,0,.6,0,0,0,0-.2-.2-.6-.1-.4-.4-.9-.6-1.6-.4-1.3-.9-3.3-.9-5.3,0-2,.5-4.2,1.5-5.5,4.1-5.7,9.2-2.2,9.9-1.2Z"/>
      <path class="st24" d="M50.8,395.8c0-10.6-7.8-19.2-7.8-19.2h0v38.3h0s7.8-8.6,7.8-19.2Z"/>
      <path class="st23" d="M43,477.9h0v33s6.8-7.4,6.8-16.5-6.8-16.5-6.8-16.5Z"/>
      <path class="st22" d="M46.6,470.2c.2,0,.5-.1.7-.2,9.6-2.5,9-12.9,8.3-13.6-.5-.5-6.4-1-10.5,2.8.3-1.2.8-2.4,1.5-3.7,5-8.5-2.8-15.5-3.8-15.5,0,0,0,0,0,0v31.9h0c1-.7,2.2-1.3,3.6-1.7Z"/>
      <path class="st25" d="M48.3,518.6c0-3-2.4-5.4-5.4-5.4v10.8h0c3,0,5.4-2.4,5.4-5.4Z"/>
      <path class="st30" d="M154.4,513.1c1.7-4.2,1.2-7.3.4-9.3-.8-2-2-2.9-3.3-3-1.3-.1-2.6.7-3.9,1.8-1.3,1.1-2.8,2.6-4.2,3-.7.3-1.3.3-1.8.2-.7,0-1.4-.1-2.2-.2-1.9-.2-4.9-.7-8.4-1.5-1.9-.4-3.8-.9-5.9-1.4-1.2-.3-2.3-.5-3.5-.8-1.3-.3-2.9-.5-4.3-.7-6-.7-13-.4-19.7,2.4-3.4,1.3-6.5,3.4-9.3,5.7-2.8,2.4-5.2,5.2-7.2,8.3-4,6.2-6.7,13.2-8.6,20.7,3.6-6.9,8.1-12.7,13.1-16.8,2.5-2,5.1-3.5,7.6-4.6,2.6-1,5.1-1.6,7.5-1.7,4.8-.3,9,.9,12.9,2.4,1,.4,1.9.7,2.9,1.2,1,.4,2.2.9,3.3,1.3,2.3.9,4.6,1.7,7,2.2,4.8,1.1,9.9,1.6,15.4.4,2.7-.7,5.4-1.9,7.7-3.6,2.2-1.8,3.8-4,4.7-6.1Z"/>
      <path class="st32" d="M111.4,524.5c-1.6-1.5-3.7-2.8-5.9-3.6-2.3-.9-4.5-1.2-7.1-1.2-2.6,0-5.1.6-7.4,1.5-4.6,1.9-7.8,5.3-9.8,8.3-2,3.1-3,5.9-3.5,7.9-.3,1-.4,1.8-.5,2.4,0,.6-.1.9-.1.9,0,0,.2-.2.7-.6.4-.4,1-.9,1.8-1.5,1.5-1.2,3.8-2.9,6.4-4.2,2.6-1.3,5.6-2.2,8.1-2.2,1.3,0,2.5.1,3.6.4,1,.3,2.5.7,3.5,1.1,1,.4,1.8.7,2.5,1,.7.3,1.3.6,2,1.1,1.3.8,2.5,1.9,3.6,2.9.5.5,1,1,1.5,1.4.5.4.8.8,1.2,1.1.7.6,1.1.8,1.1.8,0,0,.4-.3,1-1,.3-.3.6-.8.9-1.4.3-.6.6-1.3.9-2.3.4-1.8.7-4.4-.7-7.7-.7-1.6-1.8-3.3-3.4-4.8Z"/>
      <path class="st7" d="M172.8,518.6c-2-2-4.3-3-6.5-3.4-2.2-.4-4.3-.2-6.1.5-1.8.7-3.4,2.1-4,3.5-.7,1.5-.5,2.8-.2,3.6.6,1.6,1.3,2.1,1.3,2.1,0,0,.2-.9.9-2,.3-.5.9-.9,1.5-.9.6,0,1,.3,1.5.6,1.1.7,4.5,5.8-1.2,9.9-1.2,1-3.5,1.5-5.5,1.5-2.1,0-4-.5-5.3-.9-.7-.2-1.2-.5-1.6-.6-.4-.1-.6-.2-.6-.2,0,0,0,.2.1.6,0,.4.2,1,.4,1.8.5,1.5,1.6,3.6,3.9,5.7.6.5,1.2,1,1.9,1.5.7.5,1.5.9,2.4,1.3,1.8.7,4,1.3,6.5,1.1,2.4-.2,5.2-1,7.5-2.7,2.3-1.7,4.2-4,5.3-6.6,1.2-2.6,1.7-5.4,1.4-8.4-.2-1.5-.6-3-1.3-4.4-.7-1.3-1.5-2.6-2.5-3.5Z"/>
      <path class="st8" d="M173.1,545.2h38.4s-8.6-7.8-19.2-7.8-19.2,7.8-19.2,7.8Z"/>
      <path class="st6" d="M77.3,545.2h33s-7.4-6.8-16.5-6.8-16.5,6.8-16.5,6.8Z"/>
      <path class="st4" d="M132.7,541.4c-1.3.7-2.5,1.2-3.7,1.5,3.8-4,3.3-9.9,2.8-10.4-.7-.7-11.1-1.3-13.6,8.3,0,.3-.1.5-.2.7-.4,1.4-1,2.6-1.7,3.7h31.9c0-1-6.9-8.7-15.5-3.8Z"/>
      <path class="st3" d="M69.6,539.8c-3,0-5.4,2.4-5.4,5.4h10.8c0-3-2.4-5.4-5.4-5.4Z"/>
      <path class="st9" d="M117.3,470.8c-.7-.7-11.1-1.3-13.6,8.3-.4,1.4-.9,2.6-1.5,3.7-.2-5.5-4.7-9.4-5.4-9.4-1,0-8.7,6.9-3.8,15.5.1.2.2.5.4.7.7,1.3,1.1,2.6,1.4,3.8,1.2.3,2.5.7,3.8,1.4.2.1.4.2.7.4,8.5,5,15.5-2.8,15.5-3.8,0-.7-3.9-5.3-9.4-5.4,1.1-.6,2.3-1.1,3.7-1.5,9.6-2.5,9-12.9,8.3-13.6Z"/>
      <path class="st1" d="M74.1,514h-2.8c-.3.1-7,.5-11.5,5-4.5,4.5-4.9,11.2-4.9,11.5v2.7c-.1,0,2.6-.1,2.6-.1.3,0,7-.4,11.5-4.9,4.5-4.5,4.9-11.2,4.9-11.5v-2.8Z"/>
      <path class="st2" d="M42.9,531.3v13.9h13.9c0-7.7-6.2-13.9-13.9-13.9Z"/>
      <path class="st5" d="M502.2,89.5c-2.3,2.8-4.4,5.9-5.7,9.3-2.8,6.7-3.2,13.8-2.4,19.7.2,1.5.4,3,.7,4.3.3,1.2.5,2.4.8,3.5.5,2.1.9,4,1.4,5.9.8,3.5,1.4,6.6,1.5,8.4,0,.8.1,1.5.2,2.2,0,.6,0,1.2-.2,1.8-.5,1.4-1.9,2.9-3,4.2-1.1,1.3-1.9,2.6-1.8,3.9,0,1.3,1.1,2.5,3,3.3,1.9.8,5.1,1.3,9.3-.4,2.1-.9,4.3-2.5,6.1-4.7,1.8-2.2,3-5,3.6-7.7,1.3-5.5.7-10.6-.4-15.4-.6-2.4-1.3-4.7-2.2-7-.4-1.1-.9-2.3-1.3-3.3-.5-1.1-.7-1.9-1.2-2.9-1.5-3.9-2.7-8.1-2.4-12.9,0-2.4.7-4.9,1.7-7.5,1.1-2.6,2.6-5.2,4.6-7.7,4.1-5,9.9-9.5,16.8-13.1-7.5,2-14.6,4.6-20.7,8.6-3.1,2-5.9,4.4-8.3,7.2Z"/>
      <path class="st10" d="M522.2,82.4c-3,2-6.4,5.1-8.3,9.8-.9,2.3-1.5,4.9-1.5,7.4,0,2.6.4,4.8,1.2,7.1.8,2.3,2.1,4.4,3.6,5.9,1.5,1.6,3.2,2.7,4.8,3.4,3.3,1.3,5.9,1.1,7.7.7.9-.3,1.6-.6,2.3-.9.6-.3,1.1-.7,1.4-1,.7-.6,1-1,1-1,0,0-.3-.4-.8-1.1-.3-.3-.6-.7-1.1-1.2-.4-.5-.9-1-1.4-1.5-1-1.1-2.1-2.3-2.9-3.6-.4-.6-.7-1.2-1.1-2-.3-.7-.6-1.5-1-2.5-.4-1-.8-2.4-1.1-3.5-.3-1.1-.4-2.3-.4-3.6,0-2.6.9-5.5,2.2-8.1,1.3-2.6,3-4.8,4.2-6.4.6-.8,1.2-1.4,1.5-1.8.4-.4.6-.6.6-.6,0,0-.3,0-.9.2-.6,0-1.4.3-2.4.5-2,.5-4.9,1.5-7.9,3.5Z"/>
      <path class="st55" d="M515.4,162.6c-.3-.5-.6-1-.6-1.6,0-.6.4-1.1.9-1.5,1.1-.7,2-.9,2-.9,0,0-.5-.7-2.1-1.3-.8-.3-2.1-.5-3.6.2-1.5.6-2.9,2.2-3.5,4-.7,1.8-.9,3.9-.5,6.1.4,2.2,1.4,4.5,3.4,6.5.9,1,2.2,1.9,3.5,2.6,1.4.6,2.9,1.1,4.4,1.3,3.1.3,5.8-.2,8.4-1.4,2.6-1.1,4.9-3,6.6-5.3,1.7-2.3,2.5-5.1,2.7-7.5.2-2.5-.3-4.7-1.1-6.5-.4-.9-.8-1.7-1.3-2.4-.5-.7-1-1.4-1.5-1.9-2.1-2.3-4.2-3.3-5.7-3.9-.7-.3-1.4-.4-1.7-.4-.4,0-.6,0-.6,0,0,0,0,.2.2.6.1.4.4.9.6,1.6.4,1.3.9,3.2.9,5.3,0,2-.5,4.2-1.5,5.5-4.1,5.7-9.2,2.2-9.9,1.2Z"/>
      <path class="st54" d="M537.9,212.8v-38.3c0,0-7.8,8.6-7.8,19.2s7.8,19.1,7.8,19.2Z"/>
      <path class="st53" d="M537.9,111.6v-33c0,0-6.7,7.4-6.8,16.5,0,9.1,6.7,16.4,6.8,16.5Z"/>
      <path class="st58" d="M533.6,119.6c-9.6,2.5-9,12.9-8.3,13.6.5.5,6.4.9,10.5-2.8-.3,1.2-.8,2.4-1.5,3.7-5,8.5,2.7,15.4,3.7,15.5v-31.9c-1.1.6-2.3,1.2-3.6,1.7-.2,0-.5.1-.7.2Z"/>
      <path class="st57" d="M532.6,71c0,3,2.4,5.4,5.4,5.4v-10.8c-3,0-5.4,2.4-5.4,5.4Z"/>
      <path class="st56" d="M426.5,76.4c-1.7,4.2-1.2,7.3-.4,9.3.8,2,2,2.9,3.3,3,1.3.1,2.6-.7,3.9-1.8,1.3-1.1,2.8-2.5,4.2-3,.7-.3,1.3-.3,1.8-.2.7,0,1.4.1,2.2.2,1.9.2,4.9.7,8.4,1.5,1.9.4,3.8.9,5.9,1.4,1.2.3,2.3.5,3.5.8,1.3.3,2.9.5,4.3.7,6,.7,13,.4,19.7-2.4,3.4-1.3,6.5-3.4,9.3-5.7,2.8-2.4,5.2-5.2,7.2-8.3,4-6.2,6.7-13.2,8.6-20.7-3.6,6.9-8.1,12.7-13.1,16.8-2.5,2-5.1,3.5-7.7,4.6-2.6,1-5.1,1.6-7.5,1.7-4.8.3-9-.9-12.9-2.4-1-.4-1.9-.7-2.9-1.2-1-.4-2.2-.9-3.3-1.3-2.3-.9-4.6-1.7-7-2.2-4.8-1.1-9.9-1.6-15.4-.3-2.7.6-5.4,1.8-7.7,3.6-2.3,1.8-3.8,4-4.7,6.1Z"/>
      <path class="st62" d="M469.5,65c1.6,1.5,3.7,2.8,6,3.6,2.3.8,4.5,1.2,7.1,1.2,2.6,0,5.2-.6,7.4-1.5,4.6-1.9,7.8-5.3,9.8-8.3,2-3.1,3-5.9,3.5-8,.3-1,.4-1.8.5-2.4.1-.6.1-.9.1-.9,0,0-.2.2-.6.6-.4.4-1,.9-1.8,1.5-1.5,1.3-3.8,2.9-6.4,4.2-2.6,1.3-5.6,2.2-8.1,2.2-1.3,0-2.5-.1-3.6-.4-1-.3-2.5-.7-3.5-1.1-1-.4-1.8-.7-2.5-1-.7-.3-1.3-.6-1.9-1-1.3-.8-2.5-1.9-3.6-2.9-.5-.5-1-1-1.5-1.4-.4-.4-.8-.8-1.2-1.1-.7-.6-1.1-.8-1.1-.8,0,0-.4.3-1,1-.3.4-.6.8-.9,1.4-.3.6-.6,1.4-.9,2.3-.4,1.8-.7,4.4.7,7.6.6,1.6,1.8,3.4,3.4,4.9Z"/>
      <path class="st61" d="M408.1,70.9c2,1.9,4.3,3,6.5,3.4,2.2.4,4.3.2,6.1-.5,1.8-.7,3.4-2.1,4-3.6.7-1.5.5-2.8.2-3.6-.6-1.6-1.3-2.1-1.3-2.1,0,0-.2.9-.9,2-.3.5-.9.9-1.5.9-.6,0-1-.3-1.6-.6-1.1-.7-4.5-5.8,1.2-9.9,1.3-1,3.5-1.5,5.5-1.5,2,0,4,.4,5.3.9.7.2,1.2.4,1.6.6.4.1.6.2.6.2,0,0,0-.2-.1-.6,0-.4-.2-1-.4-1.7-.5-1.5-1.6-3.6-3.9-5.7-.6-.5-1.2-1-1.9-1.5-.7-.5-1.6-.9-2.5-1.3-1.8-.7-4-1.3-6.5-1.1-2.4.1-5.2,1-7.5,2.7-2.3,1.7-4.2,4-5.3,6.6-1.2,2.6-1.7,5.4-1.4,8.4.2,1.5.6,3,1.3,4.4.7,1.3,1.5,2.6,2.5,3.5Z"/>
      <path class="st60" d="M407.7,44.3h-38.4s8.6,7.8,19.2,7.8,19.2-7.8,19.2-7.8Z"/>
      <path class="st59" d="M503.6,44.3h-33s7.4,6.7,16.5,6.7,16.5-6.7,16.5-6.7Z"/>
      <path class="st18" d="M448.2,48.1c1.3-.7,2.5-1.2,3.7-1.5-3.8,4-3.3,9.9-2.8,10.5.7.7,11.1,1.3,13.6-8.3,0-.3.1-.5.2-.7.5-1.4,1-2.6,1.7-3.6h-31.9c0,1,6.9,8.7,15.5,3.8Z"/>
      <path class="st15" d="M511.3,49.7c3,0,5.4-2.4,5.4-5.4h-10.8c0,3,2.4,5.4,5.4,5.4Z"/>
      <path class="st17" d="M487.8,100.6c-.1-.2-.2-.4-.4-.6-.7-1.3-1.1-2.6-1.4-3.8-1.2-.3-2.5-.7-3.8-1.4-.2-.1-.4-.2-.7-.4-8.5-5-15.5,2.8-15.5,3.8s3.9,5.2,9.4,5.4c-1.1.6-2.3,1.1-3.7,1.5-9.6,2.5-9,12.9-8.3,13.6.7.7,11.1,1.3,13.6-8.3.4-1.4.9-2.6,1.5-3.7.2,5.5,4.7,9.4,5.4,9.4s8.7-6.9,3.8-15.5Z"/>
      <path class="st12" d="M506.8,75.5h2.8c.3-.1,7-.5,11.5-5h0c4.5-4.5,4.8-11.2,4.9-11.5v-2.8c.1,0-2.6.1-2.6.1-.3,0-7,.4-11.5,4.9-4.5,4.5-4.9,11.2-4.9,11.5v2.8Z"/>
      <path class="st16" d="M537.9,58.2v-13.8h-13.9c0,7.7,6.2,13.8,13.9,13.8Z"/>
      <path class="st11" d="M66.5,86.8c2,2.5,3.5,5.1,4.6,7.7,1,2.6,1.6,5.1,1.7,7.5.3,4.8-.9,9-2.4,12.9-.4,1-.7,1.8-1.1,2.9-.4,1-.9,2.2-1.3,3.3-.9,2.3-1.7,4.6-2.2,7-1.1,4.7-1.7,9.9-.4,15.4.7,2.7,1.9,5.4,3.6,7.7,1.8,2.2,4,3.8,6.1,4.7,4.2,1.7,7.3,1.2,9.3.4,2-.8,2.9-2,3-3.3.1-1.3-.7-2.6-1.8-3.9-1.1-1.3-2.5-2.8-3-4.2-.3-.7-.3-1.3-.2-1.8,0-.7.1-1.4.2-2.2.2-1.9.7-4.9,1.5-8.4.4-1.9.9-3.8,1.4-5.9.3-1.2.5-2.3.8-3.5.3-1.3.5-2.9.7-4.3.7-6,.4-13-2.4-19.7-1.3-3.4-3.4-6.5-5.7-9.3-2.4-2.8-5.2-5.2-8.3-7.2-6.2-4-13.2-6.7-20.7-8.6,6.9,3.6,12.7,8.1,16.8,13.1Z"/>
      <path class="st28" d="M63.7,112.7c1.5-1.6,2.8-3.7,3.6-5.9.8-2.3,1.2-4.5,1.2-7.1,0-2.6-.6-5.1-1.5-7.4-1.9-4.6-5.3-7.8-8.3-9.8-3.1-2-5.9-2.9-7.9-3.5-1-.3-1.8-.5-2.4-.5-.5,0-.9-.1-.9-.1,0,0,.2.2.6.6.4.4.9,1,1.5,1.8,1.3,1.5,2.9,3.8,4.2,6.4,1.3,2.6,2.2,5.5,2.2,8.1,0,1.3-.1,2.5-.4,3.6-.3,1-.7,2.5-1,3.5-.4,1-.7,1.8-1,2.5-.3.7-.6,1.3-1,2-.8,1.3-1.9,2.5-2.9,3.6-.5.5-1,1-1.4,1.5-.4.4-.8.8-1,1.2-.6.7-.8,1.1-.8,1.1,0,0,.3.4,1,1,.4.3.8.6,1.4,1,.6.3,1.3.6,2.3.9,1.8.4,4.4.6,7.7-.7,1.6-.7,3.3-1.8,4.9-3.4Z"/>
      <path class="st27" d="M61.7,178c1.5-.2,3-.6,4.4-1.3,1.3-.7,2.6-1.5,3.5-2.6,1.9-2,3-4.3,3.4-6.5.4-2.2.2-4.3-.5-6.1-.7-1.8-2.1-3.4-3.5-4-1.5-.6-2.8-.5-3.6-.2-1.6.6-2.1,1.3-2.1,1.3,0,0,.9.2,2,.9.5.3.9.9.9,1.5,0,.6-.3,1-.6,1.6-.7,1.1-5.8,4.5-9.9-1.2-1-1.3-1.5-3.5-1.5-5.5,0-2,.4-4,.9-5.3.2-.7.5-1.2.6-1.6.1-.4.2-.6.2-.6,0,0-.2,0-.6,0-.4,0-1,.2-1.7.4-1.5.5-3.6,1.6-5.7,3.9-.5.6-1,1.2-1.5,1.9-.5.7-.9,1.5-1.3,2.4-.7,1.8-1.3,4-1.1,6.5.1,2.4.9,5.2,2.7,7.5,1.7,2.3,4,4.3,6.6,5.3,2.6,1.2,5.4,1.7,8.4,1.4Z"/>
      <path class="st14" d="M50.8,193.7c0-10.6-7.8-19.2-7.8-19.2h0v38.3h0s7.8-8.6,7.8-19.2Z"/>
      <path class="st13" d="M49.7,95.1c0-9.1-6.8-16.5-6.8-16.5h0v33h0s6.8-7.4,6.8-16.5Z"/>
      <path class="st39" d="M46.7,134c-.7-1.3-1.2-2.5-1.5-3.7,4,3.8,9.9,3.3,10.4,2.8.7-.7,1.3-11.1-8.3-13.6-.2,0-.5-.2-.7-.2-1.4-.5-2.6-1-3.6-1.7,0,0,0,0,0,0v31.9h0c1,0,8.7-6.9,3.8-15.5Z"/>
      <path class="st33" d="M48.3,71c0-3-2.4-5.4-5.4-5.4v10.8h0c3,0,5.4-2.4,5.4-5.4Z"/>
      <path class="st35" d="M88.1,80.1c2.8,2.3,5.9,4.4,9.3,5.7,6.7,2.8,13.8,3.2,19.7,2.4,1.5-.2,3.1-.4,4.3-.7,1.2-.3,2.4-.5,3.5-.8,2.1-.5,4-.9,5.9-1.4,3.5-.8,6.6-1.4,8.4-1.5.7,0,1.5-.1,2.2-.2.6,0,1.1,0,1.8.2,1.4.5,2.9,1.9,4.2,3,1.3,1.1,2.6,1.9,3.9,1.8,1.3,0,2.5-1,3.3-3,.8-2,1.3-5.1-.4-9.3-.9-2.1-2.4-4.3-4.7-6.1-2.2-1.8-5-3-7.7-3.6-5.5-1.3-10.6-.7-15.4.3-2.4.6-4.7,1.3-7,2.2-1.1.4-2.2.9-3.3,1.3-1.1.5-1.9.7-2.9,1.1-3.9,1.5-8.1,2.7-12.9,2.4-2.4,0-4.9-.7-7.5-1.7-2.5-1.1-5.2-2.6-7.6-4.6-5-4.1-9.5-9.9-13.1-16.8,2,7.5,4.6,14.6,8.6,20.7,2,3.1,4.4,5.9,7.2,8.3Z"/>
      <path class="st36" d="M77.6,52.1c.5,2,1.5,4.9,3.5,8,2,3,5.1,6.4,9.8,8.3,2.3.9,4.9,1.5,7.4,1.5,2.6,0,4.8-.4,7.1-1.2,2.3-.8,4.4-2.1,5.9-3.6,1.6-1.5,2.7-3.2,3.4-4.9,1.3-3.2,1.1-5.8.7-7.6-.3-.9-.6-1.6-.9-2.3-.3-.6-.7-1.1-1-1.4-.6-.7-1-1-1-1,0,0-.4.3-1.1.9-.3.3-.7.6-1.2,1-.5.4-1,.9-1.5,1.4-1.1,1-2.3,2.1-3.6,2.9-.6.4-1.3.7-2,1-.7.3-1.4.7-2.5,1-1,.4-2.4.7-3.5,1-1.1.3-2.3.4-3.6.4-2.6,0-5.5-.9-8.1-2.2-2.6-1.3-4.8-3-6.4-4.2-.8-.6-1.4-1.2-1.8-1.5-.4-.4-.6-.6-.6-.6,0,0,0,.3.1.9,0,.6.2,1.4.5,2.4Z"/>
      <path class="st34" d="M169.9,48c-2.3-1.7-5.1-2.6-7.5-2.7-2.5-.2-4.7.3-6.5,1.1-.9.4-1.7.8-2.4,1.3-.7.5-1.4,1-1.9,1.5-2.3,2.1-3.3,4.2-3.9,5.7-.3.7-.4,1.4-.4,1.7,0,.4-.1.6-.1.6,0,0,.2,0,.6-.2.4-.1.9-.4,1.6-.6,1.3-.5,3.3-.9,5.3-.9,2,0,4.2.4,5.5,1.5,5.7,4.1,2.2,9.2,1.2,9.9-.6.4-1,.6-1.5.6-.6,0-1.1-.4-1.5-.9-.7-1.1-.9-2-.9-2,0,0-.7.5-1.3,2.1-.3.8-.5,2.1.2,3.6.6,1.5,2.2,2.9,4,3.6,1.8.7,3.9.9,6.1.5,2.2-.4,4.5-1.4,6.5-3.4,1-1,1.9-2.2,2.5-3.5.7-1.4,1.1-2.9,1.3-4.4.3-3.1-.2-5.8-1.4-8.4-1.1-2.6-3-4.9-5.3-6.6Z"/>
      <path class="st41" d="M211.5,44.3h-38.4s8.6,7.8,19.2,7.8,19.2-7.8,19.2-7.8Z"/>
      <path class="st38" d="M110.3,44.3h-33s7.4,6.7,16.5,6.7,16.5-6.7,16.5-6.7Z"/>
      <path class="st40" d="M118.2,48.7c2.5,9.6,12.9,9,13.6,8.3.5-.5,1-6.4-2.8-10.5,1.2.3,2.4.8,3.7,1.5,8.5,5,15.5-2.8,15.5-3.8h-31.9c.7,1,1.2,2.3,1.7,3.6,0,.2.2.5.2.7Z"/>
      <path class="st37" d="M69.6,49.7c3,0,5.4-2.4,5.4-5.4h-10.8c0,3,2.4,5.4,5.4,5.4Z"/>
      <path class="st42" d="M109.1,105.1c-1.4-.4-2.6-.9-3.7-1.5,5.5-.2,9.4-4.7,9.4-5.4,0-1-6.9-8.7-15.5-3.8-.2.1-.4.2-.7.3-1.3.7-2.6,1.1-3.8,1.4-.3,1.2-.7,2.5-1.4,3.8-.1.2-.2.4-.4.6-5,8.6,2.8,15.5,3.8,15.5s5.2-3.8,5.4-9.4c.6,1.1,1.1,2.3,1.5,3.7,2.5,9.6,12.9,9,13.6,8.3.7-.7,1.3-11.1-8.3-13.6Z"/>
      <path class="st29" d="M59.8,70.5c4.5,4.5,11.2,4.8,11.5,4.9h2.8c0,.1-.1-2.6-.1-2.6,0-.3-.4-7-4.9-11.5-4.5-4.5-11.2-4.8-11.5-4.9h-2.8c0-.1.1,2.6.1,2.6,0,.3.3,7,4.9,11.5Z"/>
      <path class="st31" d="M56.8,44.3h-13.9v13.8c7.7,0,13.9-6.2,13.9-13.8Z"/>
    </g>
  </g>
  <g>
    <path class="st64" d="M186.2,254.2c5.5,0,12.6-4.3,18.7-12.3,0,0,.4-1,4.1-1s.7-.2,1-.4c-.3,1.4-.4,2.9-.4,4.2,0,5.7,7.1,10,10,10,4.2,0,10.3-4.7,15.3-10.7-.4,1.6-.6,3.2-.6,4.7,0,3.1,3.8,5.4,6.7,5.4s5.9-4.2,8.8-7c.2,4.9,2.5,6.7,4.7,6.7s6.8-5.5,10.8-11c-.2,1.2-.3,2.4-.3,3.5,0,4.9,1.6,6.7,3.8,6.7s7-3.1,10.3-7.2c.6,3.5,3,7.7,5.7,7.7s1.3-.2,2-.8c2.5-2.1,6-6.4,8.4-9.7-.1.6-.2,1.1-.2,1.6,0,3.4,2.9,9,6.1,9s1.5-.3,2.2-.9c2.2-1.9,5.3-5.6,7.7-8.7-.4,1.6-.6,3.2-.6,4.7,0,3.1,3.8,5.4,6.7,5.4s5.9-4.2,8.8-7c.2,4.9,2.5,6.7,4.7,6.7s7.3-6.3,11.6-12.1c4.3-5.8,8.7-12.1,10.7-15.3,0,0-.5-1.4-1.1-1.4s-.4.1-.6.4c-1.3,1.9-8.7,10.9-10.9,13.4-3,3.4-5.8,6.9-6.6,7.6-.6.6-1.3,1-1.8,1s-.8-.4-.8-1.3c0-4.7,13.6-31,21.7-41.8.3-.5.5-1.1.5-1.8,0-2.5-3.7-5.3-5.9-5.3s-2.9.4-3.6,2.1c-2.8,7-5.8,13.7-9.1,20.8-1.2-1.8-3.4-3.9-5.5-3.9s-1,.1-1.9.6c-2.8,2.3-8.7,9.5-12.7,17.5-1.6,1.9-3,3.6-3.8,4.5-3.5,4.5-7,7.4-7.9,8-.2.1-.4.2-.5.2-.5,0-.7-.5-.7-1.2s.2-1.1.3-1.6c4.7-11.3,15.7-28.9,22.9-40,.3-.5.5-1.1.5-1.8,0-2.5-3.7-5.3-5.9-5.3s-2.9.4-3.6,2.1c-2,5.2-12.3,22.5-17.7,34.8-1.6,2-3.1,3.8-3.9,4.7-3.5,4.5-7,7.4-7.9,8-.2.1-.4.2-.5.2-.4,0-.5-.2-.5-.8,0-2.8,5-12.1,9.3-18.4.5-.8.8-1.6.8-2.2,0-3.5-7.7-4-7.7-4-1.9,2.3-6.1,11.4-7.9,17.8-3.1,5.1-6.8,9.1-8.8,9.1s-1.4-.8-1.4-2.5c0-7.1,13.4-20.9,13.4-25s-2.6-2.3-5.3-2.3-4.8.6-5.3,1.9c-1,2.6-3.8,8.7-5.7,15-1.1,1.4-2.1,2.5-2.7,3.2-3,3.4-5.8,6.9-6.6,7.6-.6.6-1.3,1-1.8,1s-.8-.4-.8-1.3c0-4.7,13.6-31,21.7-41.8.3-.5.5-1.1.5-1.8,0-2.5-3.7-5.3-5.9-5.3s-2.9.4-3.6,2.1c-2.9,7-5.8,13.7-9.1,20.8-1.2-1.8-3.4-3.9-5.5-3.9s-1,.1-1.9.6c-2.9,2.3-8.8,9.6-12.9,17.7-1.5,1.8-2.8,3.4-3.6,4.3-5,5.8-10.9,11.2-16.1,11.2s-2.4-1-2.4-2.6,0-2,.2-3.1c6.4-3.4,21.5-13.3,21.5-16.9s-2.9-4.2-4.3-5.2c-2.2-1.5-2.7-5.5-5.2-5.5-6.8,0-15.2,11.5-17.9,21.8-.2-2.2-1.8-5.2-4.2-5.4-.7,0-1.2,0-1.8,0-3.1,0-8.9.1-11.2.5-2.4.4-3.8.7-3.8,1.8,0,4.4,5.2,2.5,5.2,5.6s-5.2,7.8-8.5,7.8-2.6-1.1-2.6-4.1c0-10,19-34.4,24.1-34.4s.8.3.8.8c0,1.2-6.4,8.4-6.4,13.6s2.8,4.8,5,4.8,1.6-.5,2.1-1.5c2.5-5.8,11.2-14.5,11.2-19.4s-3.2-7-5.8-12.4c-.7-1.4-2.6-1.6-4-1.6-14.4,0-33.4,29.4-33.4,47s3.8,12.7,9.1,12.7ZM329.1,227.4c.7,0,1.3.8,1.3,1.6s0,.5-.1.7l-1.7,3.5c-2.8,4.9-8,13.1-10.6,15.2-.5.3-.8.5-1.2.5s-.8-.3-.8-1c0-4,10.6-20.5,13.1-20.5ZM252.9,227.4c.7,0,1.3.8,1.3,1.6s0,.5-.1.7l-1.7,3.5c-2.8,4.9-8,13.1-10.6,15.2-.5.3-.8.5-1.2.5s-.8-.3-.8-1c0-4,10.6-20.5,13.1-20.5ZM230.4,226c.2,0,.5,0,.8.1-1.4,2.9-4.3,7.5-13.4,13.7,2.4-6.5,7.4-12.6,12.7-13.9Z"/>
    <path class="st64" d="M361.1,253.5c.7,0,1.3-.2,2-.8,2.8-2.4,7-7.8,9.4-11.1,1.8-2.5,3.7-5.1,5.4-7.5.3,4.1.8,8.8.8,11.1s-.8,4.2-3.2,4.2-4.8-3.8-5.5-3.8-.8.7-.8,1.4,0,.8.2,1.1c1.5,3,7.1,6.6,11.3,6.6s4.9-1.6,4.9-5.8-.7-10.7-.7-16.3,2.2-6.1,4-6.1.7.3.7.8c0,1.4-1.8,4.5-1.8,5.2,0,1.4,2.8,4,4.4,4s.8-.2,1-.7c1.1-4.1,4.4-9,5.8-10.6.6-.8.9-1.5.9-2.2,0-1.4-.9-2.7-2.4-3.5-1.8-2.8-4.3-4-7-4-6.1,0-12.8,6.1-12.8,12.4s0,1.5,0,2.5c-2.6,3.2-5.7,7-7,8.5-3.5,4.5-7,7.4-7.9,8-.2.1-.4.2-.5.2-.5,0-.7-.5-.7-1.2,0-1.5,5-10.9,10.4-19.2.3-.4.5-1.1.5-1.8,0-2.5-3.4-5-5.6-5s-2.9.4-3.6,2.1c-2.7,7-8.1,17.5-8.1,22.3s2.7,9.3,5.9,9.3Z"/>
    <path class="st64" d="M375.3,217.6c2,0,4.7-4.5,4.7-6.4s-2.5-5.3-5.9-5.3-6,4.3-6,7,4.6,4.8,7.2,4.8Z"/>
    <path class="st64" d="M225.6,316.2c0,5.6,1.5,7.7,3.7,7.7,3.7,0,9.3-5.9,12.5-10.3,4.3-5.8,8.7-12.1,10.7-15.3,0,0-.5-1.4-1.1-1.4s-.4.2-.6.5c-1.4,1.9-8.7,10.9-10.9,13.4-1.7,2-5.4,6.7-7.1,6.7s-.8-.4-.8-1.3.2-1.8.8-3.5c1-2.8,4.4-8.3,6.8-11.4.7-.9.9-1.7.9-2.5,0-2.7-3.1-4.7-5.9-5-3.1,1.3-13.6,14.8-15.2,14.8s-.1,0-.1-.2c0-1.3,7.3-10.6,9.2-12.3,1.1-.9,1.5-1.8,1.5-2.6,0-2.3-3.3-4.5-5.2-4.5-3.4,0-8.9,9-12.8,17.5-1.5,1.8-2.9,3.5-3.6,4.3-5,5.8-10.9,11.2-16.1,11.2s-2.4-1-2.4-2.6,0-2,.2-3.1c6.4-3.4,21.5-13.3,21.5-16.9s-2.9-4.2-4.3-5.2c-2.2-1.5-2.7-5.5-5.2-5.5-6.3,0-14,9.8-17.2,19.5-.9,1.1-1.7,2-2.2,2.6-5,5.8-10.9,11.2-16.1,11.2s-2.4-1-2.4-2.6,0-2,.2-3.1c6.4-3.4,21.5-13.3,21.5-16.9s-2.9-4.2-4.3-5.2c-2.2-1.5-2.7-5.5-5.2-5.5-8.2,0-18.8,16.7-18.8,28s7.1,10,10,10c4.4,0,10.8-5.1,15.9-11.5,0,.5,0,1,0,1.5,0,5.7,7.1,10,10,10,4.1,0,10-4.5,14.9-10.3-.6,1.8-.9,3.2-.9,4.1,0,3.4,4.4,6.3,6.1,6.3s1.4-.5,1.8-1.5c1.1-3.2,3.5-7.9,6.3-11.2,1.9-2.4,4.7-4.6,5.7-4.6,0,0-1.4,1.9-1.4,6.8ZM178.2,298c.2,0,.5,0,.8.1-1.4,2.9-4.3,7.5-13.4,13.7,2.4-6.5,7.4-12.6,12.7-13.9ZM204,298c.2,0,.5,0,.8.1-1.4,2.9-4.3,7.5-13.4,13.7,2.4-6.5,7.4-12.6,12.7-13.9Z"/>
    <path class="st64" d="M274.9,308.4c.5,0,.8-.2,1-.7,1.1-4.1,4.4-9,5.8-10.6.6-.8.9-1.5.9-2.2,0-1.3-.9-2.7-2.4-3.4-1.8-2.8-4.3-4-7-4-6.1,0-12.8,6.1-12.8,12.4s1.1,13.7,1.1,17.4-.8,4.2-3.2,4.2-4.8-3.8-5.5-3.8-.8.7-.8,1.4,0,.8.2,1.1c1.5,3,7.1,6.6,11.3,6.6s4.9-1.6,4.9-5.8-.7-10.7-.7-16.3,2.2-6.1,4-6.1.7.3.7.8c0,1.4-1.8,4.5-1.8,5.2,0,1.4,2.8,4,4.4,4Z"/>
    <path class="st64" d="M422.4,296.8c-.2,0-.4.2-.6.5-1.3,1.9-8.7,10.9-10.9,13.4-5,5.8-11,11.2-16.1,11.2s-2.4-1-2.4-2.6,0-2,.2-3.1c6.5-3.4,21.5-13.3,21.5-16.9s-2.8-4.2-4.3-5.2c-2.2-1.5-2.7-5.5-5.2-5.5-6.3,0-14.1,10-17.3,19.8-.8,1-1.5,1.8-1.9,2.3-1.7,2-5.4,6.7-7.1,6.7s-.8-.4-.8-1.3.2-1.8.8-3.5c1-2.8,4.4-8.3,6.8-11.4.7-.9.9-1.7.9-2.5,0-2.7-3.1-4.7-5.9-5-3.2,1.3-13.7,14.8-15.2,14.8s-.2,0-.2-.2c0-1.3,7.3-10.6,9.2-12.3,1.1-.9,1.5-1.8,1.5-2.6,0-2.3-3.3-4.5-5.2-4.5-3.3,0-8.3,8.1-12.2,16.2-2.3,2.4-4.6,3.4-6.6,3.4h-.1c3.1-5.2,5.2-9.9,5.2-11.2,0-2.5-2.7-5.6-6.5-5.6-1.9-1.2-3.1-3.5-4.8-3.5-4.5,0-12.4,11.9-15.6,22.3,0,0-.1.2-.2.2-3,3.5-4.6,5-5.3,5.6-.6.6-1.3,1-1.8,1s-.8-.4-.8-1.3c0-2.2,6.2-11.1,9.1-14.8.7-.9.9-1.7.9-2.4,0-2.5-3.2-4-5.9-4.2-1.4.6-4.6,4-7.5,7.1l-.4.4c-.4.5-.9.7-1.2.7s-.5-.2-.5-.5.2-1,.7-1.8c1.8-3.3,11.2-19.4,14.8-24.3.3-.5.5-1.1.5-1.8,0-2.6-3.7-5.3-5.9-5.3s-2.9.4-3.6,2.1c-4.1,10.1-8.4,19.7-13.9,30.8-2.6,3.3-5.9,7.2-7.2,8.7-5,5.8-11,11.2-16.1,11.2s-2.5-.5-2.5-2c0-3.2,5.5-14.8,8-14.8s.6.2.6.7-.8,1.7-.8,2.3c0,1.4,2.8,4,4.4,4s.8-.2,1-.7c1.1-4.1,6-11.1,7.4-12.7.4-.5.5-.8.5-1.2,0-1.3-1.9-2.1-1.9-4,0-3.7-3.1-5.8-6.8-5.8s-1.6.2-2.4.8c-6.8,5.2-17.1,19.5-17.1,28.2s6.3,10.6,9.8,10.6c5.6,0,11.2-5.2,15.9-11.3-.8,1.5-1.6,3-2.4,4.5-.1.4-.2.8-.2,1,0,2.9,4.6,5.2,5.7,5.2s1.3-.5,1.9-1.6c1.3-3.5,5.2-9.9,6.4-11.5,1.7-2.3,4.5-4.9,5.1-4.9,0,0-2.4,6.8-2.4,9.1,0,5.3,1.3,7.2,3.1,7.2s6.4-3.7,9.6-7.5c0,.3,0,.7,0,1,0,4.5,1.9,7.6,6.7,7.6s9.2-6.3,13.6-13c.5.2,1.1.2,1.7.2,1.6,0,3.2-.4,4.9-1.2-1.5,3.8-2.4,7-2.4,8.5,0,3.4,4.4,6.3,6.1,6.3s1.4-.5,1.8-1.5c1.1-3.2,3.5-7.9,6.3-11.2,2-2.4,4.7-4.6,5.7-4.6,0,0-1.4,1.9-1.4,6.8s1.5,7.7,3.7,7.7c3.2,0,7.9-4.5,11.1-8.6,0,.4,0,.9,0,1.3,0,5.7,7.1,10,10,10,4.7,0,11.9-6,17.1-13,4.3-5.9,8.7-12.1,10.7-15.3,0,0-.5-1.4-1.1-1.4ZM343.8,309.7c-2.9,5.7-7.8,12.3-9.8,12.3s-.8-.3-.8-1c0-8.6,8-19.6,11.2-19.6h.2c-1,2.1-1.4,3.9-1.4,5.5s.2,2,.6,2.8ZM406.6,298c.2,0,.5,0,.7.1-1.4,2.9-4.3,7.5-13.4,13.7,2.4-6.5,7.4-12.6,12.7-13.9Z"/>
    <path class="st64" d="M245.4,381.2c-1,0-2.2.2-3.7.4,1.4-2.7,15.4-9.1,15.8-10.9.1-.8.4-2.1.4-3.4,0-2.8-.8-6.1-4-6.1s-6.5,1.3-11,1.3-2.7-.2-2.7-1.7,0-.2,0-.2c-.8,0-6.1,7.3-6.1,10.8s.5,1.9,2,1.9c2.5,0,5.4-1.7,8.2-1.7s.8.2.8.6c0,2.2-7.9,6.4-10.1,8.5-1.2,1.1-1.3,1.6-1.3,2.1,0,1.8,2.3,4.1,3.8,4.1s1.9-.2,3.1-.2,2.5.2,2.5,1.1c0,5-8.6,18.1-12.4,18.1s-.4-.1-.4-.6c0-3.8,6.8-11,10-14.8.2-.2.3-.5.3-.6,0-.3-.3-.4-.8-.4s-.8,0-1.2.2c-4.8,1.3-13.9,12.9-13.9,15.3s2.8,7.4,6.1,7.4c6.4,0,21.1-17.2,21.1-26.2s-1.8-5.2-6.4-5.2Z"/>
    <path class="st64" d="M350.7,368.8c-.2,0-.4.2-.6.5-1.3,1.9-8.6,11-10.9,13.4-3.8,4-7.6,7.5-10.5,7.5s-3.4-1.7-4-5.9c7-3.2,19.7-11.8,19.7-16s-2.5-5.4-5.3-5.4-4.2.9-5.8,2.6c-1.7,1.8-3.8,4.2-5.9,6.7,4.9-9.4,9.5-15.5,14.4-23.9.3-.5.5-1.1.5-1.8,0-2.5-3.7-5.3-5.9-5.3s-2.9.4-3.6,2.1c-4.3,10.5-8.7,20.4-14.5,32-2.4,3-5.1,6.2-6.2,7.5-3,3.5-5.8,6.9-6.6,7.6-.6.6-1.3,1-1.8,1s-.8-.4-.8-1.3.2-1.8.8-3.4c1-2.8,4.4-8.3,6.8-11.4.7-.9.9-1.7.9-2.5,0-2.7-3.1-4.7-5.9-5,.8-.8,1.1-1.6,1.1-2.3,0-2.2-2.7-4.3-4.3-4.9-.5-.2-.9-.3-1.3-.3-3.9,0-10.9,9.7-15.2,19.3-1.2,1.4-2.2,2.6-2.8,3.3-3,3.5-5.8,6.9-6.6,7.6-.6.6-1.3,1-1.8,1s-.8-.4-.8-1.3.2-1.8.8-3.4c1-2.8,4.4-8.3,6.8-11.4.7-.9.9-1.7.9-2.5,0-2.7-3.1-4.7-5.9-5,.8-.8,1.1-1.6,1.1-2.3,0-2.2-2.7-4.3-4.3-4.9-.5-.2-.9-.3-1.3-.3-5.9,0-18.8,22.1-18.8,32.5s3.8,5.4,6.7,5.4,5.9-4.2,8.9-7c.2,5,2.5,6.8,4.7,6.8s5.8-4.3,9.3-9c-.3,1.4-.5,2.8-.5,3.9,0,3.1,3.8,5.4,6.7,5.4s5.9-4.2,8.8-7c.2,5,2.5,6.8,4.7,6.8s5.2-3.5,8.4-7.8c-.4.8-.9,1.7-1.3,2.5-.2.4-.2.8-.2,1,0,2.9,4.6,5.2,5.7,5.2s1.3-.5,1.9-1.6c1.3-3.8,2.5-7,3.8-10.1,1.4,4.3,4.3,10.2,8.4,10.2s3.1-.8,4.8-2.6c2-2.2,4.6-5.4,7.3-8.9,4.3-5.7,8.7-12.1,10.7-15.3,0,0-.5-1.4-1.1-1.4ZM271.2,375.9c-1,2.7-7.3,13.7-10.7,16.5-.4.3-.8.5-1.2.5s-.8-.3-.8-1c0-4,9.1-18.3,11.5-18.3s1.3.7,1.3,1.5,0,.5-.2.8ZM300.3,375.9c-1,2.7-7.3,13.7-10.7,16.5-.5.3-.8.5-1.2.5s-.8-.3-.8-1c0-4,9.1-18.3,11.5-18.3s1.3.7,1.3,1.5,0,.5-.2.8ZM324.5,379.9c0-.7,10.5-11.7,12.1-11.7s.9.2.9.6c0,2.2-7.9,9.2-13,12.1v-1Z"/>
  </g>
</svg>